<?xml version="1.0" standalone="no"?>
<!DOCTYPE svg PUBLIC "-//W3C//DTD SVG 20010904//EN"
 "http://www.w3.org/TR/2001/REC-SVG-20010904/DTD/svg10.dtd">
<svg version="1.0" xmlns="http://www.w3.org/2000/svg"
 width="972.000000pt" height="1280.000000pt" viewBox="0 0 972.000000 1280.000000"
 preserveAspectRatio="xMidYMid meet">
<g transform="translate(0.000000,1280.000000) scale(0.100000,-0.100000)"
fill="#000000" stroke="none">
<path d="M1513 12651 c-44 -41 -49 -50 -33 -54 13 -3 20 -16 22 -41 3 -33 5
-29 35 54 17 49 31 90 30 90 -1 -1 -25 -23 -54 -49z"/>
<path d="M1071 12267 c-16 -42 -12 -68 5 -28 8 18 13 38 11 45 -3 6 -10 -2
-16 -17z"/>
<path d="M1360 12159 c-28 -25 -34 -33 -15 -21 28 19 73 62 64 62 -2 0 -24
-18 -49 -41z"/>
<path d="M1053 12150 c0 -25 2 -35 4 -22 2 12 2 32 0 45 -2 12 -4 2 -4 -23z"/>
<path d="M8336 12149 c-20 -28 -10 -49 23 -49 40 0 56 -16 110 -108 42 -72 50
-93 56 -158 5 -61 4 -79 -8 -92 -25 -27 -86 -162 -107 -237 -11 -38 -26 -75
-34 -83 -13 -13 -18 -11 -39 12 -30 32 -37 33 -37 2 0 -53 70 -76 110 -36 28
28 35 51 49 151 14 95 13 94 59 132 52 42 148 29 187 -25 25 -37 9 -48 -59
-41 -58 5 -64 4 -80 -18 -14 -21 -16 -45 -10 -195 l7 -172 -26 -26 c-23 -23
-34 -26 -96 -26 -116 0 -94 -19 26 -22 94 -3 108 -5 111 -21 4 -22 -47 -45
-138 -60 l-65 -12 83 -6 c46 -4 88 -11 93 -16 16 -16 32 -192 25 -286 -4 -67
-2 -96 10 -126 12 -31 13 -44 4 -61 -14 -25 -5 -39 13 -21 7 7 15 54 18 113 5
82 9 104 24 115 28 20 82 16 106 -8 22 -22 39 -19 20 5 -14 17 -8 22 41 31 26
5 49 1 83 -14 29 -13 69 -21 100 -21 43 0 55 -4 68 -22 l16 -23 0 23 c1 24 53
82 74 82 6 0 20 -9 31 -19 12 -10 41 -22 66 -25 30 -4 38 -3 25 3 -11 5 -30
23 -43 40 -30 42 -67 41 -146 -4 -75 -42 -95 -43 -136 -9 -31 26 -31 26 -119
15 -135 -17 -184 -15 -207 10 -17 19 -19 41 -22 237 -3 203 -2 219 19 276 14
38 41 81 71 114 34 38 48 62 48 83 0 16 5 38 11 48 10 15 7 26 -19 63 -36 52
-48 59 -117 67 l-50 6 -5 85 c-9 133 -30 183 -113 273 -40 42 -78 77 -84 77
-7 0 -19 -10 -27 -21z m384 -564 c-1 -5 -11 -30 -23 -55 -17 -35 -28 -46 -50
-48 -16 -2 -35 2 -43 9 -16 13 -19 59 -4 59 6 0 15 11 19 23 8 21 16 24 55 23
25 -1 46 -5 46 -11z"/>
<path d="M1225 12085 c-16 -7 -23 -14 -15 -14 8 0 26 6 40 14 32 18 14 18 -25
0z"/>
<path d="M8237 12014 c-47 -78 -67 -154 -64 -243 2 -76 3 -80 23 -75 22 6 30
-7 53 -93 6 -22 20 -52 32 -65 l20 -23 -6 40 c-4 22 -24 77 -46 122 -50 103
-58 163 -30 218 12 21 21 48 21 60 1 11 7 38 15 60 8 21 13 40 12 42 -2 1 -15
-18 -30 -43z"/>
<path d="M995 11800 c-33 -4 -91 -11 -129 -15 -65 -8 -69 -10 -82 -41 -7 -17
-16 -52 -19 -76 l-6 -43 18 49 c26 72 52 86 169 96 55 5 133 12 176 16 73 6
77 6 102 -19 32 -33 32 -45 0 -92 l-26 -38 18 -56 c15 -48 16 -63 5 -114 -7
-32 -14 -100 -16 -150 -1 -51 -6 -110 -10 -132 l-6 -40 21 25 c47 55 61 117
39 177 -8 24 -7 44 5 85 17 57 12 107 -15 176 -11 26 -11 36 -1 50 41 57 37
113 -8 137 -31 16 -126 18 -235 5z"/>
<path d="M7992 11687 c-22 -23 -44 -116 -25 -104 6 4 13 21 17 39 3 18 18 45
33 60 19 20 22 28 12 28 -9 0 -25 -10 -37 -23z"/>
<path d="M841 11603 c0 -16 4 -37 9 -48 6 -15 9 -8 9 28 1 26 -3 47 -9 47 -5
0 -10 -12 -9 -27z"/>
<path d="M8075 11609 c-4 -6 2 -17 14 -25 23 -17 28 -63 9 -82 -17 -17 -58
-15 -80 5 -10 9 -21 13 -25 9 -14 -14 14 -41 68 -68 36 -18 58 -36 66 -55 8
-19 12 -99 13 -247 0 -121 3 -217 6 -213 9 8 26 79 25 103 -1 24 21 33 79 34
l35 1 -45 17 c-61 24 -62 53 -2 66 23 6 42 13 42 16 0 3 -19 10 -42 16 -58 12
-77 46 -59 101 8 25 11 58 7 89 -4 27 -9 79 -12 116 -5 56 -10 73 -34 98 -29
31 -54 38 -65 19z"/>
<path d="M717 11528 l-29 -40 30 -32 c16 -17 35 -40 41 -51 11 -18 12 -17 6 9
-3 16 -15 41 -26 54 -18 23 -18 27 -4 49 28 43 11 52 -18 11z"/>
<path d="M1116 11563 c-9 -10 3 -1089 14 -1197 5 -50 7 -92 5 -95 -3 -2 -63
-6 -135 -9 -95 -3 -134 -1 -145 8 -12 10 -15 43 -15 180 0 93 -3 175 -6 184
-4 11 -14 13 -36 9 -35 -7 -35 -7 -3 77 15 38 16 60 10 125 -8 78 -8 79 -17
40 -5 -22 -6 -59 -3 -81 4 -31 -1 -61 -20 -115 -14 -40 -25 -80 -25 -88 0 -9
14 -28 32 -43 l33 -27 3 -114 c3 -106 2 -117 -17 -136 -15 -15 -34 -21 -66
-21 -82 0 -145 -52 -145 -119 0 -20 4 -41 8 -46 9 -14 67 -33 122 -41 63 -9
67 -15 62 -78 -3 -32 2 -83 12 -123 9 -37 20 -124 26 -193 5 -69 14 -139 21
-156 11 -29 10 -34 -20 -71 -37 -46 -73 -135 -65 -158 7 -16 54 -21 54 -5 0 5
-5 20 -11 34 -9 19 -9 32 1 56 16 38 44 37 48 -3 3 -20 9 -27 26 -27 48 0 66
63 21 74 -14 4 -25 14 -25 23 0 16 79 99 159 166 25 20 42 40 38 43 -13 14
-68 -20 -117 -73 -28 -30 -56 -53 -63 -50 -7 2 -13 17 -15 34 -4 37 39 78 128
123 72 36 85 37 105 6 23 -35 10 -69 -51 -136 -30 -32 -54 -62 -54 -68 0 -5
10 -12 23 -16 27 -6 84 -60 92 -87 10 -30 -10 -46 -64 -53 -29 -4 -55 -14 -66
-26 -10 -11 -13 -20 -8 -20 6 0 16 7 23 15 14 17 43 19 71 5 39 -22 109 -202
109 -285 0 -32 -7 -51 -30 -80 -32 -40 -31 -47 11 -82 18 -16 28 -36 32 -65 3
-24 9 -62 13 -85 5 -34 2 -49 -17 -80 -25 -40 -50 -121 -40 -127 3 -2 35 -11
70 -20 112 -29 170 -73 212 -161 47 -98 40 -104 -57 -50 l-62 35 -319 0 c-193
0 -333 -4 -356 -11 -52 -14 -108 -73 -133 -139 -30 -79 -49 -73 -48 15 1 168
129 308 317 347 47 10 64 10 90 -1 88 -37 161 -19 231 60 39 42 39 42 32 108
-13 145 -55 211 -80 127 -10 -36 -38 -67 -50 -55 -11 10 34 154 50 164 51 29
64 53 64 115 0 33 -6 75 -14 93 -17 41 -70 87 -99 86 -22 0 -22 0 1 -9 29 -12
35 -30 25 -71 -12 -44 -30 -47 -46 -7 l-14 33 -8 -43 c-7 -44 -7 -44 -42 -37
-42 8 -63 -7 -63 -45 0 -19 9 -36 25 -48 14 -11 25 -25 25 -31 0 -18 -36 -30
-66 -22 -37 10 -54 43 -54 107 0 41 6 59 30 92 16 23 46 48 65 56 41 17 46 36
10 36 -30 0 -91 -60 -116 -115 -24 -52 -25 -143 -2 -183 16 -29 16 -31 -12
-93 -36 -82 -41 -132 -20 -205 17 -58 17 -58 -5 -76 -12 -10 -29 -18 -37 -18
-28 0 -93 -41 -146 -92 -60 -60 -96 -140 -117 -265 -21 -127 -57 -148 -240
-141 -102 3 -114 5 -130 26 -10 12 -20 28 -23 35 -2 6 -8 8 -13 4 -12 -12 -8
-731 6 -1277 22 -814 18 -741 40 -728 14 9 25 9 46 0 l27 -13 -18 28 c-10 15
-29 44 -42 64 l-24 37 3 390 c3 341 5 393 19 407 10 10 42 18 87 22 40 3 72 9
72 12 0 3 105 8 233 9 127 2 254 8 281 13 27 5 95 9 153 9 l103 0 45 -41 c25
-23 58 -65 75 -94 16 -28 47 -72 68 -96 22 -24 45 -55 52 -69 7 -14 35 -56 62
-95 101 -145 198 -299 198 -315 0 -17 -39 -60 -55 -60 -5 0 -19 -9 -31 -21
l-22 -21 -74 27 c-61 22 -95 28 -208 32 -202 8 -385 -23 -507 -83 -63 -32 -78
-36 -118 -30 -25 4 -45 4 -45 1 0 -11 40 -66 95 -130 28 -33 66 -82 85 -110
19 -27 54 -71 77 -96 24 -25 57 -73 73 -107 16 -35 43 -83 60 -107 17 -25 38
-60 46 -78 8 -17 30 -59 49 -92 64 -111 235 -444 235 -457 0 -7 9 -32 20 -55
15 -34 24 -42 42 -40 20 2 23 -4 29 -42 9 -66 -1 -97 -41 -123 -19 -13 -41
-36 -48 -51 -7 -15 -17 -27 -21 -27 -16 0 -178 183 -216 245 -29 47 -276 385
-286 391 -22 13 -5 -20 39 -78 26 -35 124 -169 217 -298 170 -235 245 -323
294 -341 36 -14 183 16 241 49 25 14 66 44 92 66 45 40 98 82 202 159 69 52
172 112 232 135 52 21 265 46 484 58 69 4 133 9 142 13 21 8 -318 4 -435 -5
-76 -6 -90 -4 -107 11 -11 10 -20 24 -20 31 0 25 -110 254 -168 350 -32 55
-69 119 -82 144 -34 67 -191 341 -213 370 -10 14 -37 57 -59 95 -22 39 -52 82
-65 96 -24 26 -24 28 -8 59 9 17 36 44 60 58 37 23 42 31 38 53 -3 17 2 37 13
55 16 24 19 53 22 209 l4 180 38 50 c38 50 60 107 60 158 0 15 12 56 26 90 46
109 62 237 56 447 -6 218 -1 236 74 272 53 24 74 52 85 111 9 49 -9 96 -49
127 -22 18 -41 20 -177 20 -110 0 -155 3 -163 13 -5 6 -12 46 -14 88 -6 100
-40 172 -115 248 -43 42 -75 64 -123 82 -60 23 -65 27 -64 55 1 16 7 49 14 74
14 55 8 134 -20 221 -18 61 -19 70 -5 115 21 69 19 88 -16 190 -29 84 -30 95
-24 194 13 214 15 604 3 642 -15 50 0 68 56 68 53 0 94 36 77 68 -13 25 -64
46 -94 38 -48 -12 -76 -45 -97 -115 -11 -38 -29 -80 -40 -94 -40 -51 -11 -86
40 -48 36 26 37 26 50 1 30 -56 -58 -155 -201 -230 -78 -40 -83 -42 -96 -24
-16 21 -17 68 -3 95 8 14 21 19 51 19 l41 0 -43 33 c-53 40 -77 73 -85 115 -7
37 13 45 33 13 14 -22 70 -38 85 -23 17 17 -2 52 -38 67 -34 14 -43 28 -24 40
6 3 10 23 10 44 0 43 -24 71 -82 96 -62 25 -92 20 -125 -22 -32 -39 -53 -38
-53 3 0 41 27 81 62 93 19 6 162 11 341 12 344 3 333 5 347 -68 l8 -38 1 37
c3 87 -39 120 -146 116 l-67 -3 3 150 3 150 28 26 c28 26 50 82 50 126 0 12 5
34 11 50 18 47 12 98 -20 162 -23 45 -31 74 -31 115 0 68 -6 85 -29 79 -16 -4
-18 9 -24 148 -4 84 -7 180 -7 215 0 59 -8 82 -24 67z m97 -666 c27 -35 27
-89 2 -118 -14 -15 -20 -36 -20 -72 0 -51 -17 -73 -30 -40 -9 26 -19 228 -11
248 8 23 35 15 59 -18z m-133 -1897 c0 -25 -30 -41 -53 -29 -39 22 -4 79 35
58 10 -5 18 -18 18 -29z m-102 -78 c5 -84 -14 -174 -47 -222 -28 -41 -33 -50
-23 -50 5 0 21 18 36 40 29 45 46 51 46 18 -1 -51 -75 -168 -106 -168 -23 0
-46 59 -46 119 0 63 15 128 42 181 9 19 25 67 35 105 21 87 24 91 43 71 10
-10 17 -41 20 -94z m-142 -77 c7 -18 -35 -185 -51 -203 -19 -21 -40 14 -39 64
2 92 69 195 90 139z m502 -601 c89 -43 136 -130 93 -173 -19 -19 -34 -21 -156
-23 -74 -1 -150 -2 -167 -2 -29 -1 -33 2 -36 29 -5 42 13 95 48 143 48 67 115
75 218 26z m-525 -1 c58 -29 127 -167 98 -196 -13 -13 -343 -24 -387 -13 -17
5 -24 13 -24 32 0 29 34 99 64 132 59 66 170 86 249 45z m255 5 c-6 -18 -28
-21 -28 -4 0 9 7 16 16 16 9 0 14 -5 12 -12z m-23 -58 c9 -15 -13 -40 -35 -40
-26 0 -43 23 -28 38 15 15 55 16 63 2z m-30 -113 c0 -15 -4 -28 -9 -29 -14 -5
-30 28 -23 46 10 26 32 14 32 -17z m771 -68 c48 -15 69 -44 69 -96 0 -56 -26
-80 -95 -89 l-48 -6 -5 -307 c-6 -391 -14 -422 -124 -466 -51 -20 -54 -32 -13
-47 40 -13 51 -36 40 -81 -11 -51 -27 -67 -66 -67 l-34 0 0 -210 c0 -125 -4
-210 -9 -210 -6 0 -16 11 -23 24 -7 13 -34 50 -61 82 -102 126 -115 152 -128
247 -11 91 -6 116 24 104 15 -6 27 -58 27 -124 0 -34 3 -41 15 -37 10 4 15 20
16 48 1 80 15 136 42 164 l26 27 -6 418 c-3 229 -10 417 -14 417 -18 0 -22
-59 -26 -405 -2 -203 -6 -380 -8 -391 -6 -28 -43 -41 -130 -47 -85 -6 -104 3
-173 77 l-50 55 -464 -8 c-305 -5 -471 -5 -485 2 -30 14 -44 57 -32 101 12 43
36 51 178 61 116 7 137 18 53 26 -35 3 -70 13 -78 21 -11 11 -15 42 -17 116
-2 93 0 103 21 124 21 21 33 23 146 27 l124 3 7 -55 c6 -47 1 -90 -20 -194 -3
-12 -14 -25 -25 -28 -11 -3 -20 -11 -20 -16 0 -11 245 -11 370 0 l85 8 -98 1
c-137 3 -138 4 -135 170 l3 127 54 3 c70 4 210 -13 224 -27 6 -6 12 -48 12
-94 2 -183 3 -197 24 -197 18 0 19 11 24 138 3 75 6 146 8 157 4 18 -3 21 -61
27 -100 10 -827 14 -837 5 -7 -8 11 -26 47 -47 17 -10 33 -227 17 -247 -13
-17 -69 -16 -93 1 -18 14 -19 31 -22 346 -2 215 0 336 6 342 7 7 209 14 539
20 290 5 634 13 763 17 253 8 387 5 436 -10z m-1195 -445 c15 -18 26 -214 15
-258 -7 -29 -35 -42 -51 -24 -13 14 -35 150 -35 216 0 29 6 48 20 62 24 24 33
25 51 4z m654 -1290 c33 -8 76 -25 96 -38 38 -25 180 -230 243 -349 19 -37 46
-82 59 -100 13 -18 43 -68 67 -112 24 -44 61 -107 83 -139 46 -68 205 -391
213 -434 5 -25 2 -30 -28 -42 -18 -7 -49 -23 -68 -36 -25 -16 -62 -26 -125
-33 -49 -6 -105 -15 -123 -20 -27 -8 -36 -7 -52 9 -18 18 -19 18 -22 -12 -6
-60 -26 -40 -82 78 -31 64 -58 115 -61 112 -3 -3 15 -52 41 -108 46 -102 49
-127 16 -138 -19 -6 -95 73 -127 132 -16 31 -36 58 -43 61 -13 5 62 -142 100
-197 24 -35 68 -38 97 -7 11 12 25 19 33 16 7 -2 34 6 60 19 102 51 198 53
153 4 -26 -29 -161 -109 -220 -130 -27 -10 -68 -25 -90 -33 -71 -26 -111 -29
-129 -11 -22 22 -16 36 22 54 37 17 40 35 11 52 -28 18 -96 121 -110 169 -7
21 -18 39 -26 39 -7 0 -13 7 -13 16 0 9 -11 27 -25 40 -14 13 -25 32 -25 44 0
28 -27 80 -120 230 -83 134 -155 262 -214 378 -20 40 -61 100 -91 132 -78 85
-175 218 -175 241 0 11 6 22 14 25 27 10 74 -26 156 -121 46 -52 85 -95 87
-95 9 0 -83 126 -128 176 -27 30 -49 60 -49 68 0 16 42 36 75 36 20 0 26 -8
39 -52 9 -29 25 -64 36 -78 l20 -25 -10 28 c-21 59 -2 77 37 35 22 -24 228
-358 258 -418 32 -64 138 -240 148 -247 6 -3 8 -2 5 3 -3 5 -60 104 -126 219
-66 116 -163 282 -216 370 -53 87 -95 163 -93 169 12 35 79 -17 143 -109 20
-30 39 -55 42 -55 8 0 -51 95 -74 121 -33 34 -31 65 4 77 36 14 230 4 307 -14z
m-5 -1544 c0 -5 -4 -10 -10 -10 -5 0 -10 5 -10 10 0 6 5 10 10 10 6 0 10 -4
10 -10z"/>
<path d="M120 7771 c0 -19 61 -22 485 -27 269 -3 451 -10 467 -16 33 -12 42
-39 58 -183 24 -203 28 -210 29 -50 1 204 11 235 76 235 22 0 26 3 17 12 -8 8
-115 14 -354 19 -189 4 -441 10 -560 13 -120 3 -218 2 -218 -3z"/>
<path d="M850 5926 c0 -2 8 -10 18 -17 15 -13 16 -12 3 4 -13 16 -21 21 -21
13z"/>
<path d="M890 5871 c5 -11 15 -23 21 -27 6 -3 3 5 -6 20 -20 30 -30 35 -15 7z"/>
<path d="M1170 5820 c6 -11 13 -20 16 -20 2 0 0 9 -6 20 -6 11 -13 20 -16 20
-2 0 0 -9 6 -20z"/>
<path d="M981 5718 c42 -84 109 -198 116 -198 5 0 -18 43 -89 173 -33 59 -62
107 -64 107 -2 0 14 -37 37 -82z"/>
<path d="M1202 5768 c8 -13 43 -71 78 -130 62 -108 78 -129 60 -84 -11 31
-140 236 -147 236 -3 0 1 -10 9 -22z"/>
<path d="M1143 5433 c2 -5 39 -72 82 -151 42 -79 79 -141 82 -138 7 6 -153
296 -164 296 -2 0 -2 -3 0 -7z"/>
<path d="M1290 5422 c0 -12 56 -98 69 -106 6 -4 -5 20 -25 53 -35 59 -44 70
-44 53z"/>
<path d="M1390 5232 c0 -5 9 -17 20 -27 22 -20 26 -9 6 18 -14 18 -26 22 -26
9z"/>
<path d="M775 11192 c1 -106 5 -196 9 -199 9 -9 5 326 -4 362 -4 17 -6 -57 -5
-163z"/>
<path d="M9523 10938 c-10 -37 -21 -51 -51 -70 -112 -67 -116 -70 -97 -85 16
-11 20 -10 29 10 6 12 24 26 39 31 22 8 33 6 57 -12 l30 -22 5 22 c3 13 5 57
3 98 l-3 75 -12 -47z"/>
<path d="M8316 10846 c-27 -36 -33 -56 -17 -56 35 0 155 -109 186 -169 21 -41
35 -39 35 4 0 51 -19 85 -47 85 -16 0 -23 5 -20 13 2 6 10 11 16 10 24 -6 9
29 -39 86 -29 34 -59 61 -69 61 -10 0 -30 -15 -45 -34z"/>
<path d="M8225 10707 c-21 -36 -37 -53 -54 -55 -21 -3 -23 -1 -17 22 3 13 2
27 -3 30 -4 3 -11 -38 -15 -92 -4 -53 -13 -153 -21 -222 -23 -208 -26 -294
-32 -835 -8 -733 -9 -768 -11 -789 -2 -16 -8 -18 -43 -12 -48 8 -196 64 -288
110 -36 18 -84 39 -106 46 -39 13 -103 63 -236 185 -36 33 -93 75 -127 94 -34
19 -94 61 -134 93 -192 157 -325 248 -461 318 -151 77 -370 202 -401 229 -30
25 -190 212 -255 298 -33 43 -75 95 -93 117 l-34 38 -311 6 c-343 5 -357 4
-483 -54 -64 -30 -72 -37 -56 -46 15 -9 17 -18 12 -67 l-6 -56 22 65 c21 58
28 67 69 90 26 14 56 31 67 37 16 10 22 10 32 -2 10 -13 7 -26 -18 -73 -16
-31 -35 -77 -42 -102 -13 -50 -35 -90 -51 -90 -5 0 -14 10 -19 23 -8 21 -9 21
-9 -5 -2 -58 -39 -104 -54 -65 -3 7 -7 5 -12 -8 -19 -56 -26 -66 -43 -63 -12
2 -19 17 -23 48 -6 39 -6 37 -4 -13 3 -50 1 -58 -13 -55 -10 2 -23 19 -30 38
-11 33 -12 30 -6 -32 5 -65 5 -68 -16 -68 -16 0 -27 13 -47 58 -14 31 -28 74
-30 94 -5 32 -1 42 26 69 26 25 34 29 46 19 12 -10 15 -9 15 9 0 36 28 78 58
89 16 5 32 19 35 31 3 12 3 21 0 21 -2 0 -30 -20 -62 -45 -60 -47 -120 -121
-216 -268 -49 -73 -59 -97 -63 -141 -4 -51 -3 -53 21 -58 23 -5 25 -3 16 19
-17 44 -12 66 14 61 22 -4 23 -3 13 33 -7 27 -6 45 2 63 10 23 17 25 54 23 36
-2 44 -7 46 -26 2 -12 -4 -34 -13 -48 -13 -19 -15 -36 -10 -68 8 -56 -10 -69
-42 -29 -24 28 -24 28 -18 4 4 -14 14 -38 22 -53 15 -30 10 -47 -13 -47 -12 0
-13 -4 -4 -21 14 -24 7 -49 -14 -49 -7 0 -16 -9 -19 -21 -9 -33 -31 -17 -44
32 -10 39 -11 25 -12 -116 0 -88 4 -212 9 -275 26 -329 41 -492 60 -655 11
-99 29 -262 40 -361 30 -281 68 -444 104 -444 7 0 26 19 41 43 69 104 144 173
160 147 4 -6 1 -17 -5 -25 -7 -9 -8 -15 -2 -15 5 0 22 16 36 35 22 29 24 35
10 35 -12 0 -15 6 -12 24 3 15 0 27 -8 30 -21 8 -16 46 11 96 l25 45 -38 -44
c-27 -31 -44 -42 -55 -38 -22 8 -21 19 4 70 17 32 18 39 6 28 -51 -42 -65 44
-17 104 32 40 35 52 21 73 -7 11 -10 10 -15 -3 -3 -9 -6 -28 -6 -41 0 -28 -24
-42 -44 -25 -10 9 -21 2 -50 -34 -46 -56 -103 -65 -61 -9 20 27 19 32 -9 27
-32 -7 -40 10 -17 38 16 20 23 22 38 13 10 -6 24 -9 31 -7 19 7 14 30 -8 36
-24 6 -25 16 -6 43 14 19 15 19 40 -5 l25 -24 18 32 c50 90 100 156 119 159
32 5 36 -22 9 -63 l-25 -35 25 6 c33 8 33 -15 0 -46 -19 -18 -27 -20 -39 -11
-11 9 -15 8 -20 -5 -4 -12 -2 -15 9 -10 9 3 15 0 15 -9 0 -20 3 -19 46 10 57
39 72 13 32 -54 -20 -34 -21 -35 -2 -18 12 9 28 17 37 17 30 0 19 -48 -24
-113 l-41 -62 36 38 c20 21 42 37 49 34 13 -4 14 -38 2 -73 -5 -16 -2 -23 14
-27 28 -7 26 -19 -5 -57 -15 -17 -24 -33 -21 -36 3 -3 10 4 17 15 11 22 35 28
45 11 13 -21 -34 -80 -164 -211 -75 -75 -145 -141 -156 -147 -19 -10 -19 -11
-1 -31 25 -28 86 -45 128 -37 39 7 98 41 98 56 0 6 -13 1 -29 -11 -31 -23 -51
-19 -51 10 0 17 87 119 169 199 64 63 69 0 6 -82 -45 -59 -45 -69 1 -25 46 44
125 173 154 250 38 100 63 94 80 -21 6 -41 16 -97 22 -123 13 -58 14 -56 -132
-175 -122 -99 -197 -169 -212 -197 -6 -11 30 18 81 65 51 47 127 111 169 143
79 60 251 216 252 229 0 4 -7 5 -15 2 -23 -9 -28 21 -10 58 39 76 115 128 171
114 30 -8 30 -18 0 -53 -21 -24 -22 -29 -9 -39 23 -16 5 -42 -62 -94 -31 -24
-75 -70 -96 -102 -22 -32 -46 -58 -53 -58 -7 0 -52 -37 -98 -82 -47 -46 -151
-141 -231 -213 -136 -122 -170 -159 -113 -121 36 23 53 20 71 -11 l15 -28 -6
40 c-4 30 0 48 15 73 25 39 46 41 65 5 15 -28 15 -27 10 17 -5 37 -2 48 14 63
11 10 29 17 39 15 12 -3 23 6 33 26 16 32 45 45 62 28 6 -6 4 -23 -7 -48 -18
-44 -34 -57 -52 -42 -10 8 -13 0 -13 -37 0 -33 -12 -76 -40 -142 -23 -52 -45
-118 -51 -146 -6 -29 -15 -71 -20 -95 -16 -73 -108 -193 -197 -257 -204 -146
-195 -139 -245 -227 -56 -100 -61 -146 -22 -238 57 -135 74 -237 82 -497 l8
-241 53 -78 c75 -110 59 -135 -42 -64 -75 53 -137 84 -211 105 -33 10 -78 24
-100 32 -22 8 -85 17 -140 18 l-100 4 76 -10 c182 -22 349 -84 449 -165 41
-33 91 -62 134 -78 78 -28 91 -38 82 -61 -8 -21 -59 -42 -175 -71 -103 -27
-138 -29 -193 -14 -35 10 -39 15 -54 68 -22 74 -57 106 -187 170 -120 59 -242
92 -344 92 -97 0 -99 22 -3 46 41 11 42 12 14 13 -43 1 -242 -50 -329 -84 -67
-27 -73 -28 -138 -17 -85 15 -161 15 -227 1 -71 -15 -57 -21 21 -8 62 10 155
0 189 -21 22 -13 1 -44 -51 -75 -28 -16 -121 -77 -207 -134 -202 -133 -219
-141 -340 -142 l-97 -2 125 -8 c116 -8 126 -10 145 -33 15 -19 24 -23 35 -16
8 5 46 22 83 36 60 23 85 42 190 143 154 147 234 202 272 187 24 -9 6 -29 -48
-55 -56 -27 -272 -232 -265 -251 4 -10 39 19 114 96 112 114 167 155 187 135
7 -7 6 -15 -3 -26 -23 -28 4 -15 45 21 22 19 35 33 30 30 -6 -2 -17 -1 -25 4
-31 19 38 91 74 77 23 -9 20 -23 -11 -53 l-28 -26 40 24 c57 34 72 39 85 23 8
-10 3 -22 -22 -51 -18 -20 -32 -46 -30 -56 4 -20 -8 -24 -26 -6 -12 12 -12 13
-105 -62 -62 -49 -68 -65 -11 -29 35 21 37 22 50 4 13 -17 17 -15 66 31 56 53
140 114 156 114 5 0 17 11 26 25 19 29 25 30 52 10 18 -14 17 -16 -26 -55 -25
-23 -62 -53 -82 -67 -29 -20 -38 -32 -38 -54 0 -25 -10 -36 -70 -74 -39 -25
-110 -84 -158 -133 l-87 -87 -145 1 c-127 0 -160 4 -271 32 -143 35 -348 99
-367 115 -7 5 -10 17 -7 26 4 14 -8 18 -75 27 -57 8 -102 22 -156 49 -73 36
-174 119 -174 142 0 25 32 43 75 43 24 0 47 4 50 10 4 6 -6 10 -24 10 -17 0
-38 9 -49 20 -10 11 -52 105 -92 208 -175 446 -300 661 -424 724 -21 11 -73
49 -114 84 -41 35 -81 64 -89 64 -8 0 -30 -8 -51 -19 -20 -10 -83 -32 -138
-50 -56 -17 -107 -38 -114 -46 -17 -20 -9 -19 69 9 89 32 216 59 244 52 12 -3
48 -30 79 -60 31 -30 74 -63 95 -72 62 -30 143 -120 200 -224 28 -52 55 -108
59 -125 3 -16 28 -68 54 -115 27 -47 54 -103 60 -125 7 -22 19 -49 26 -60 8
-11 14 -26 14 -33 0 -8 16 -49 35 -92 44 -97 45 -118 5 -133 -16 -6 -30 -15
-30 -19 0 -36 115 -156 192 -201 54 -31 50 -54 -9 -62 -86 -12 -70 -14 48 -8
l116 6 78 -37 c42 -21 88 -41 101 -46 13 -5 24 -16 24 -23 0 -11 -34 -15 -155
-20 -172 -7 -797 -56 -804 -63 -12 -12 19 -13 165 -4 87 6 285 14 439 20 301
11 344 16 380 50 23 22 45 20 45 -3 0 -15 -82 -95 -170 -167 -36 -29 -74 -63
-85 -76 -18 -22 -31 -25 -145 -34 -69 -5 -150 -14 -180 -20 -71 -13 -370 -41
-379 -35 -4 2 -52 0 -107 -5 -95 -9 -126 -13 -314 -44 -106 -18 -124 -9 -85
43 27 37 54 58 165 121 138 80 200 123 189 134 -5 6 -217 -122 -356 -215 -160
-106 -202 -126 -291 -137 -57 -7 -93 -7 -117 1 -30 9 -37 8 -48 -7 -13 -17
-17 -17 -93 -1 -74 17 -82 22 -134 75 -75 76 -197 239 -205 272 -4 15 -20 35
-35 45 -33 21 -95 94 -117 137 -9 17 -32 49 -52 72 -20 22 -54 64 -76 93 -22
29 -48 63 -58 75 -17 21 -17 21 -7 -7 13 -37 14 -34 -16 -50 l-27 -14 43 -6
c54 -7 66 -24 38 -54 l-21 -23 24 0 c34 0 64 -23 56 -44 -5 -11 -1 -16 13 -16
29 0 53 -29 39 -46 -6 -8 -17 -14 -23 -14 -6 0 -16 -11 -23 -25 -10 -22 -9
-25 8 -25 12 0 19 7 19 20 0 11 6 20 14 20 20 0 25 -11 19 -43 -5 -24 -10 -27
-44 -27 -22 0 -39 5 -39 10 0 14 -47 13 -56 -1 -3 -6 0 -15 7 -20 10 -6 11
-11 2 -20 -13 -13 -33 -4 -33 16 0 23 -90 8 -113 -18 -19 -22 -19 -19 -5 -182
3 -29 2 -30 -34 -27 -35 3 -38 2 -40 -25 -6 -106 18 -187 76 -245 39 -40 45
-52 74 -172 35 -137 67 -210 144 -324 56 -83 120 -137 214 -182 80 -37 136
-46 189 -28 49 16 51 36 7 63 -111 67 -146 107 -182 203 -25 66 -62 306 -58
372 l3 45 55 8 c30 4 59 12 65 18 5 5 12 60 15 122 4 97 7 112 23 115 18 4 67
-43 114 -106 21 -28 91 -62 155 -76 18 -4 29 -16 37 -37 13 -38 15 -3023 2
-3102 -4 -26 -4 -71 2 -100 10 -56 11 -849 1 -955 -10 -97 -8 -96 -211 -90
-123 4 -178 9 -189 19 -13 11 -15 31 -13 109 2 55 -1 110 -8 130 -7 19 -19 85
-27 145 -30 208 -65 294 -155 379 -95 88 -221 129 -338 109 -41 -8 -72 -8 -77
-3 -5 5 -11 286 -13 667 -2 370 -8 704 -14 763 -6 63 -9 276 -8 530 4 497 -10
1324 -22 1295 -11 -29 -11 -1644 1 -2290 6 -302 6 -590 2 -638 -5 -60 -4 -99
3 -122 8 -23 12 -194 11 -580 -1 -301 2 -549 5 -551 4 -2 188 -3 410 -2 222 0
463 0 534 -1 72 -1 283 -4 470 -5 249 -3 372 -8 460 -20 136 -19 226 -16 380
15 79 16 110 18 145 10 28 -6 73 -7 120 -1 41 5 217 12 390 15 379 9 540 18
493 30 -37 8 -43 29 -14 45 32 17 51 12 113 -30 33 -22 79 -45 101 -51 23 -6
53 -15 66 -20 13 -5 69 -14 126 -20 96 -11 108 -10 170 11 62 21 72 21 144 10
61 -10 110 -11 232 -1 100 8 385 11 809 10 569 -1 664 1 725 15 53 12 169 19
480 26 l410 10 54 -26 c52 -27 55 -27 146 -17 55 7 109 20 133 32 58 30 76 28
68 -6 -13 -57 -13 -58 24 -58 l35 0 0 53 c0 41 4 57 19 67 25 19 32 13 39 -32
9 -56 62 -96 69 -53 4 26 23 27 24 2 2 -38 21 -56 61 -58 21 0 106 -15 189
-32 84 -18 218 -39 299 -47 81 -9 156 -20 166 -25 27 -15 100 -12 222 10 140
24 243 60 461 158 l59 27 347 -3 c238 -2 361 0 390 8 23 6 40 14 37 16 -3 3
-179 7 -392 9 -240 2 -391 7 -397 13 -6 6 -9 96 -6 243 l3 234 32 65 c47 96
117 140 161 103 34 -29 63 -202 69 -411 l6 -173 25 -10 c14 -6 49 -9 76 -7
l51 3 -1 115 c0 128 -25 295 -56 380 -42 114 -92 151 -207 153 -76 1 -102 -11
-179 -81 l-53 -48 -11 -104 c-6 -59 -8 -189 -5 -298 l5 -192 -41 -24 c-95 -55
-386 -146 -465 -146 l-35 0 8 88 c4 48 6 166 5 263 l-2 176 55 104 c62 117 98
215 152 410 20 74 50 168 66 211 32 82 46 94 134 116 60 15 557 53 582 44 7
-2 22 -29 33 -60 23 -61 111 -235 135 -266 26 -34 57 -14 103 69 24 41 47 75
51 75 49 0 38 -215 -15 -295 -10 -16 -17 -80 -24 -226 -11 -221 -3 -345 24
-382 9 -12 27 -36 40 -54 l23 -31 12 156 c9 117 10 199 2 322 -5 91 -13 523
-16 960 -7 1016 -16 1572 -26 1540 -4 -14 -7 -47 -8 -73 -1 -34 -6 -49 -18
-54 -20 -8 -100 34 -114 59 -6 11 -21 78 -34 151 -13 73 -28 154 -34 180 -12
50 -95 281 -110 306 -29 46 -58 -57 -76 -274 -9 -99 -20 -190 -25 -202 -9 -21
-16 -23 -80 -23 -54 0 -72 4 -76 15 -9 22 23 247 47 335 33 119 67 179 123
217 26 18 60 33 75 33 30 0 159 -64 179 -88 6 -9 12 -28 12 -44 0 -16 14 -46
34 -72 18 -24 37 -61 41 -82 3 -21 15 -55 26 -76 11 -21 24 -70 28 -109 17
-131 24 -85 17 115 -3 110 -7 296 -7 415 l-2 216 -8 -125 c-8 -109 -12 -127
-30 -143 -33 -27 -67 -32 -88 -13 -10 9 -34 21 -52 26 -50 14 -98 47 -108 73
-6 14 -4 32 6 51 8 16 23 70 33 121 22 109 38 150 120 315 63 128 84 160 97
146 5 -4 10 -87 13 -184 5 -163 6 -155 7 98 1 223 -1 267 -10 235 -7 -22 -24
-57 -40 -76 -26 -35 -183 -375 -233 -507 -14 -36 -24 -84 -24 -113 0 -42 -3
-52 -19 -56 -15 -4 -18 -11 -14 -42 4 -26 0 -41 -11 -50 -25 -21 -46 -6 -46
32 0 46 -7 50 -44 23 -48 -36 -144 -82 -224 -106 -82 -25 -145 -22 -184 10
-22 17 -23 24 -22 154 0 75 3 139 7 142 4 4 15 -1 26 -10 18 -17 19 -14 23 96
3 96 7 121 28 163 20 39 31 51 52 53 23 3 28 -2 38 -35 23 -80 24 -174 2 -246
-20 -63 -21 -97 -2 -97 15 0 81 84 86 110 3 14 10 48 17 75 l12 50 47 -3 c45
-3 48 -2 54 25 8 32 23 55 33 49 4 -3 7 89 6 204 0 150 3 212 12 221 16 16 31
-18 41 -95 8 -69 32 -90 32 -29 0 21 10 58 21 83 12 25 31 76 45 114 13 38 36
88 52 110 17 23 37 58 45 79 9 20 20 37 26 37 15 0 53 68 49 87 -6 30 -92 -90
-159 -219 -43 -86 -65 -118 -78 -118 -10 0 -24 -7 -31 -15 -16 -19 -29 -19
-36 0 -3 8 5 28 18 44 22 25 26 42 31 130 4 59 12 112 22 130 21 42 20 44 -20
38 -36 -6 -59 8 -31 19 17 7 21 48 10 103 -5 22 -11 30 -21 27 -7 -3 -17 2
-20 11 -4 9 -2 18 4 20 5 2 8 14 6 26 -5 26 23 97 38 97 6 0 27 14 46 30 32
29 38 30 126 30 99 0 104 14 10 26 -72 9 -81 18 -85 89 l-3 60 50 3 c28 2 67
-2 88 -8 29 -8 47 -8 73 0 30 10 38 9 55 -6 19 -17 19 -15 19 122 0 487 -30
2199 -37 2129 -6 -50 -13 -75 -22 -75 -5 0 -23 24 -39 53 -16 28 -64 89 -105
134 -41 46 -77 94 -79 108 -7 32 9 60 83 152 33 42 74 100 91 130 17 30 35 52
42 50 13 -4 23 -137 25 -336 0 -79 4 -142 7 -139 12 12 -30 2361 -44 2410 -4
15 -6 -174 -4 -420 3 -500 5 -491 -68 -540 -31 -21 -43 -23 -104 -19 -54 4
-74 9 -86 25 -23 27 -35 222 -34 507 1 161 -1 213 -9 195 -6 -15 -11 -147 -12
-337 -1 -172 -4 -316 -8 -319 -12 -12 -59 19 -68 45 -6 14 -5 61 1 120 6 53
13 199 17 325 6 210 5 230 -11 242 -14 10 -15 16 -6 31 10 15 9 28 -3 63 -9
27 -17 39 -20 30 -3 -8 -8 -184 -10 -390 -3 -223 -10 -386 -16 -402 -13 -33
-97 -83 -164 -98 -37 -8 -55 -7 -82 5 -19 7 -35 10 -35 4 0 -22 -29 -6 -41 24
-11 25 -14 98 -12 342 3 415 14 485 80 485 29 0 29 8 -2 50 -14 19 -25 45 -26
59 -1 24 -2 23 -16 -9 -8 -19 -22 -43 -31 -53 -13 -15 -18 -59 -25 -235 -8
-186 -13 -634 -9 -712 1 -14 0 -52 -3 -85 -5 -64 8 -52 20 18 8 50 33 64 127
70 53 4 96 14 134 31 62 29 84 23 84 -20 0 -29 -31 -50 -85 -59 -46 -7 -73
-21 -62 -31 3 -4 12 -2 19 4 8 6 34 8 68 4 l55 -7 0 -75 0 -75 -59 -7 c-103
-13 -193 -83 -181 -140 8 -33 -8 -58 -36 -58 -11 0 -29 -17 -44 -40 -41 -65
-55 -50 -55 60 0 63 3 72 31 104 18 21 30 45 29 58 -4 41 0 48 25 58 40 15 95
63 95 83 0 29 -29 19 -90 -30 -45 -37 -57 -53 -53 -69 4 -20 -30 -98 -48 -110
-5 -3 -9 -27 -9 -53 0 -27 -6 -113 -14 -192 -8 -79 -17 -243 -20 -364 -4 -121
-11 -262 -16 -313 -6 -55 -6 -100 -1 -110 15 -28 25 -376 12 -401 -16 -29 -51
-28 -51 2 0 12 -7 31 -15 41 -8 11 -15 27 -15 36 0 9 -18 52 -39 95 -23 48
-45 113 -54 160 -12 62 -33 115 -92 234 -69 137 -87 164 -162 243 l-84 88 3
419 c2 317 6 422 16 433 7 9 37 18 68 21 58 6 70 12 76 36 2 11 -10 13 -59 12
-97 -4 -104 4 -101 101 3 76 5 82 31 102 26 19 41 21 194 21 161 0 165 -1 184
-24 15 -18 19 -39 19 -100 0 -101 -12 -120 -67 -103 -47 14 -163 16 -163 3 0
-14 29 -22 120 -32 59 -7 89 -15 98 -26 9 -12 12 -89 13 -292 1 -256 2 -274
16 -241 11 26 15 74 15 190 1 85 0 164 -1 175 -1 11 4 171 10 355 8 257 8 368
-1 477 -7 77 -10 145 -6 151 3 5 -1 15 -8 21 -24 20 -29 -4 -21 -95 8 -94 -1
-187 -18 -181 -5 1 -17 25 -25 53 -16 56 -38 85 -58 77 -8 -3 -18 5 -25 21
-10 22 -9 29 5 45 16 18 16 21 -2 58 -11 21 -29 47 -41 57 -21 19 -21 19 -21
-9 0 -20 -4 -26 -15 -21 -8 3 -31 -2 -50 -10 -47 -19 -89 -86 -121 -191 -16
-54 -30 -83 -40 -83 -8 0 -14 7 -14 15 0 52 35 233 59 305 35 106 55 211 48
250 -5 22 -2 32 11 39 15 9 15 12 2 25 -13 13 -18 8 -45 -37z m186 -448 c43
-43 129 -278 129 -353 l0 -31 -157 0 c-87 0 -173 -4 -190 -8 -29 -8 -34 -6
-44 16 -16 35 -4 76 26 87 14 5 29 20 35 32 5 13 25 63 44 112 63 159 105 197
157 145z m-2891 -17 c0 -8 -8 -24 -17 -36 -10 -11 1 -5 24 13 80 63 73 4 -10
-86 -25 -27 -46 -42 -55 -38 -8 3 -23 -2 -33 -11 -22 -20 -49 -12 -49 16 0 26
-8 25 -37 -2 -17 -16 -26 -19 -35 -10 -26 26 53 162 94 162 17 0 20 -5 14 -30
l-6 -30 39 40 c39 41 71 46 71 12z m-180 3 c0 -22 -99 -190 -112 -190 -24 0
-32 32 -19 74 21 70 131 168 131 116z m324 -19 c-2 -20 -1 -20 38 4 33 20 68
27 68 13 0 -4 -15 -22 -32 -41 l-33 -33 59 35 c76 46 115 47 150 5 35 -41 33
-54 -14 -84 -50 -32 -120 -94 -120 -107 0 -5 27 13 61 41 33 28 68 51 78 51 9
0 22 5 29 12 8 8 15 8 27 -2 22 -18 20 -52 -3 -48 -17 3 -90 -67 -80 -77 2 -2
21 8 41 22 29 20 40 24 49 15 8 -8 8 -15 3 -21 -87 -79 -141 -121 -160 -121
-13 0 -38 17 -62 44 -23 25 -57 52 -77 60 -49 20 -64 54 -42 97 23 46 20 49
-13 10 -19 -23 -33 -32 -44 -28 -11 4 -14 12 -10 24 6 15 2 14 -21 -5 -29 -22
-56 -29 -56 -14 0 12 51 79 99 130 40 43 67 51 65 18z m376 -165 c0 -14 -18
-23 -30 -16 -6 4 -8 11 -5 16 8 12 35 12 35 0z m-3 -91 c3 -11 12 -19 21 -18
33 6 20 -24 -40 -94 -90 -105 -101 -124 -26 -45 41 41 74 67 87 67 12 0 21 6
21 15 0 8 9 15 20 15 25 0 27 -26 3 -35 -10 -3 -27 -17 -37 -32 l-20 -27 24
17 c35 24 80 23 80 -3 0 -36 -113 -88 -130 -60 -5 8 -12 5 -24 -11 -20 -29
-20 -45 -2 -56 21 -12 36 -48 36 -85 0 -30 4 -36 35 -47 41 -14 59 -43 51 -77
-4 -14 0 -34 10 -48 8 -14 14 -35 12 -48 -3 -21 -10 -24 -76 -30 -75 -6 -110
-18 -54 -18 33 0 197 -36 222 -49 8 -5 15 -19 15 -32 0 -20 -4 -24 -28 -21
-28 3 -28 3 -22 -45 4 -26 10 -91 15 -143 l8 -95 0 95 c1 52 1 101 1 108 1 6
11 12 23 12 14 0 47 -27 94 -77 69 -74 86 -104 65 -118 -5 -3 -12 -20 -16 -38
-4 -17 -23 -61 -42 -97 -20 -36 -42 -86 -49 -111 -13 -43 -46 -79 -73 -79 -5
0 -44 32 -87 72 l-79 72 93 -96 93 -97 -19 -38 c-11 -21 -41 -66 -66 -101 -36
-49 -52 -63 -69 -60 -24 3 -26 16 -13 78 l7 35 -16 -27 c-8 -15 -34 -79 -56
-143 -35 -97 -50 -125 -90 -169 -55 -60 -101 -86 -151 -86 -60 1 -118 72 -118
148 0 40 -1 42 -25 36 -33 -8 -44 19 -19 47 14 16 27 20 51 16 28 -5 33 -3 33
14 0 13 11 25 30 33 17 7 27 15 23 19 -13 13 -58 7 -91 -13 -19 -12 -50 -20
-77 -20 -35 0 -47 5 -64 26 -12 15 -21 34 -21 43 -1 34 -27 -19 -34 -68 -4
-27 -15 -60 -25 -72 l-19 -23 -41 28 c-62 43 -184 176 -209 227 -12 25 -34 56
-49 69 l-27 23 40 35 c66 58 108 72 213 69 68 -2 95 -7 101 -17 19 -29 10 10
-10 50 -22 44 -25 81 -9 111 5 11 9 28 7 37 -3 13 -18 3 -64 -40 -34 -32 -66
-58 -72 -58 -7 0 -12 15 -12 35 0 31 6 38 44 62 41 26 127 123 109 123 -12 0
-162 -106 -196 -138 -16 -15 -42 -54 -59 -87 -36 -72 -65 -105 -90 -105 -12 0
-19 -6 -17 -17 1 -10 1 -24 0 -31 -1 -14 -59 -52 -78 -52 -16 0 -63 92 -63
122 0 51 43 109 170 228 118 111 136 124 202 147 89 31 170 34 218 8 26 -14
56 -19 117 -20 99 0 136 -20 141 -76 1 -19 5 -41 8 -49 5 -13 7 -12 15 3 16
27 34 21 104 -38 36 -31 65 -54 65 -51 0 2 -64 64 -142 137 -79 73 -147 143
-152 156 -7 17 -5 27 10 44 20 23 129 79 154 79 17 1 70 29 56 30 -20 0 -182
-52 -204 -66 -22 -15 -153 -44 -193 -44 -11 0 -25 11 -32 27 l-12 27 -5 -30
c-5 -26 -19 -36 -125 -92 -66 -34 -158 -87 -205 -116 -47 -29 -96 -56 -108
-60 -23 -8 -102 -91 -129 -137 -23 -38 -50 -38 -58 1 -7 32 -1 50 17 50 16 0
58 41 58 57 0 7 -11 13 -25 13 -18 0 -32 -11 -51 -40 -15 -22 -30 -40 -34 -40
-6 0 -86 124 -99 153 -2 5 5 26 14 48 17 36 17 40 2 57 -33 37 -12 96 63 177
42 45 52 72 45 114 -5 33 -3 41 18 57 14 11 36 47 50 81 33 85 108 213 123
213 20 0 24 -15 14 -51 -10 -38 -11 -38 47 45 21 29 40 46 53 46 24 0 25 -6 4
-56 -20 -49 -10 -38 50 54 79 119 136 171 136 121 0 -20 0 -20 28 1 27 22 27
22 30 2 2 -11 -21 -69 -51 -129 -30 -59 -57 -119 -60 -133 -3 -14 -22 -41 -42
-60 -49 -48 -63 -31 -36 45 31 87 18 78 -19 -14 -33 -82 -53 -102 -78 -77 -12
11 -12 21 -3 47 21 61 10 54 -26 -16 -38 -75 -69 -115 -89 -115 -24 0 -24 17
1 91 l25 74 -25 -30 c-25 -30 -69 -155 -63 -181 2 -11 12 -8 41 12 55 37 228
109 327 136 77 21 104 23 278 21 l192 -2 0 47 c1 55 59 202 86 217 10 6 48 34
84 62 70 56 99 65 107 33z m-510 -1 c14 -14 8 -31 -27 -84 -15 -22 -50 -83
-78 -135 -28 -52 -60 -105 -72 -118 -25 -26 -53 -26 -58 1 -10 52 98 250 172
315 40 35 47 37 63 21z m45 -76 c-5 -15 -13 -37 -17 -48 -6 -15 -3 -14 11 5
10 14 22 28 28 32 14 9 36 -10 35 -31 0 -25 -92 -205 -106 -209 -23 -6 -26 29
-9 82 10 28 19 58 22 66 3 8 -9 -12 -27 -45 -36 -70 -57 -95 -76 -95 -29 0
-23 32 24 125 55 110 100 172 116 156 6 -6 6 -19 -1 -38z m-342 7 c0 -25 -32
-44 -48 -28 -9 9 -8 16 5 30 21 24 43 23 43 -2z m437 -133 c-8 -59 -43 -137
-61 -137 -41 0 -37 57 9 136 35 59 60 60 52 1z m69 -11 c3 -8 0 -25 -7 -38 -7
-13 -13 -36 -13 -53 -1 -23 -6 -31 -24 -33 -29 -4 -39 23 -17 48 10 11 14 26
11 38 -11 33 38 70 50 38z m491 -12 c3 -8 1 -20 -6 -27 -14 -14 -47 15 -37 32
10 16 36 13 43 -5z m79 -23 c12 -30 20 -38 34 -34 25 7 33 -15 61 -159 25
-130 51 -208 79 -233 18 -16 60 -112 60 -135 0 -34 -83 24 -119 83 -10 18 -22
51 -26 75 -4 24 -15 67 -26 96 -10 29 -21 83 -25 120 -5 47 -10 64 -17 57 -8
-8 -7 -29 2 -72 14 -72 3 -97 -25 -55 -11 17 -23 25 -32 21 -35 -13 -42 42
-11 84 19 26 20 34 11 95 -16 99 4 131 34 57z m-1451 19 c11 -17 -5 -32 -21
-19 -7 6 -11 15 -8 20 7 12 21 11 29 -1z m1585 -72 c0 -5 -8 -8 -17 -6 -12 2
-19 14 -21 33 l-2 30 20 -24 c11 -13 20 -28 20 -33z m59 2 c10 -5 24 -22 30
-38 9 -22 18 -28 32 -25 14 4 23 -3 34 -28 11 -27 14 -30 15 -12 0 31 16 37
33 13 7 -11 16 -17 19 -15 12 13 57 -20 72 -53 14 -28 19 -33 26 -21 19 29 44
-6 71 -97 14 -49 40 -116 58 -149 18 -33 29 -51 25 -40 -3 11 -22 63 -40 115
-38 106 -41 128 -19 136 27 11 45 -16 45 -64 0 -40 36 -140 46 -129 2 2 -4 29
-13 61 -18 66 -11 82 29 67 28 -10 71 -67 108 -141 12 -25 44 -81 70 -125 55
-91 70 -135 48 -135 -21 0 -41 25 -77 95 -17 33 -37 71 -45 85 -9 14 -22 43
-31 64 -8 22 -18 36 -22 32 -6 -5 29 -81 109 -240 6 -12 6 -22 0 -28 -10 -10
-20 -1 -70 61 l-19 25 5 -32 c2 -18 0 -32 -5 -32 -11 0 -44 35 -62 65 l-13 20
8 -20 c12 -36 9 -59 -8 -63 -25 -5 -62 58 -107 182 -22 59 -46 115 -55 125 -9
10 -16 31 -17 47 0 26 -1 27 -9 8 -13 -34 -28 -37 -63 -15 -63 38 -87 83 -63
116 13 18 14 17 27 -10 18 -36 40 -45 32 -13 -11 43 -34 69 -56 62 -12 -4 -23
-1 -28 7 -14 23 -11 -48 4 -84 8 -18 25 -45 39 -62 40 -47 110 -226 95 -241
-11 -11 -39 18 -57 61 -10 22 -30 55 -44 74 -14 19 -26 39 -26 45 0 5 -14 31
-31 57 -21 33 -29 55 -24 69 9 28 -24 115 -39 100 -15 -15 -23 -13 -47 13
l-21 22 5 -30 c21 -115 57 -225 90 -274 21 -29 37 -62 37 -72 0 -30 -29 -22
-48 12 -9 17 -31 52 -48 78 -40 60 -63 120 -79 206 -8 39 -17 82 -21 98 -7 29
4 34 37 17 17 -9 19 -7 19 18 0 41 9 49 39 32z m-334 -14 c17 -12 18 -18 7
-40 -7 -16 -20 -26 -32 -26 -19 0 -24 9 -21 40 5 43 15 49 46 26z m-1265 -61
c0 -16 -27 -32 -37 -22 -3 4 -3 13 0 22 8 20 37 20 37 0z m4300 -35 c23 0 35
-69 51 -300 6 -91 13 -168 16 -172 2 -5 11 -8 19 -8 26 0 101 -83 113 -125 6
-22 11 -45 11 -52 0 -6 5 -15 12 -19 16 -10 4 120 -16 167 -8 20 -36 61 -61
90 -64 74 -77 102 -73 157 5 76 29 70 136 -35 103 -100 114 -125 133 -291 23
-205 -48 -441 -166 -552 -20 -19 -27 -21 -40 -10 -33 27 -31 53 -41 -590 -7
-431 3 -634 34 -699 20 -40 15 -58 -12 -48 -21 8 -26 -24 -26 -169 0 -116 2
-134 20 -157 11 -14 20 -27 20 -30 0 -3 -9 -7 -20 -10 -19 -5 -20 -14 -20
-184 0 -98 5 -300 11 -450 11 -249 10 -275 -5 -298 -21 -32 -76 -36 -76 -6 0
11 -6 21 -12 23 -13 5 -15 24 -22 218 -1 52 -9 124 -16 160 -7 36 -13 81 -13
100 0 19 -6 199 -14 400 -10 266 -12 563 -8 1095 3 402 1 849 -4 994 -9 224
-8 272 5 322 13 50 14 88 4 260 -12 208 -8 238 27 224 8 -3 23 -5 33 -5z m331
-50 c9 -32 11 -243 3 -264 -3 -9 -11 -16 -18 -16 -6 0 -60 42 -120 93 -166
140 -183 186 -67 188 31 0 79 7 106 14 68 18 88 15 96 -15z m-4671 2 c0 -13
-12 -22 -22 -16 -10 6 -1 24 13 24 5 0 9 -4 9 -8z m1688 -35 c2 -12 -3 -17
-17 -17 -15 0 -21 6 -21 21 0 25 33 22 38 -4z m-1844 -44 c8 -19 -8 -38 -23
-29 -16 10 -13 46 3 46 8 0 17 -8 20 -17z m1659 -78 c8 -18 -11 -31 -25 -17
-11 11 -3 32 12 32 4 0 10 -7 13 -15z m323 -171 c30 -61 54 -114 54 -117 0 -4
-6 -7 -14 -7 -15 0 -76 68 -76 84 0 5 -16 42 -36 83 -21 42 -34 80 -30 89 11
30 44 -13 102 -132z m102 124 c6 -7 20 -42 32 -78 12 -36 37 -91 56 -123 36
-63 42 -87 20 -87 -19 0 -79 91 -122 187 -30 68 -35 85 -24 98 15 18 24 19 38
3z m2335 -13 c8 -18 -11 -31 -25 -17 -11 11 -3 32 12 32 4 0 10 -7 13 -15z
m-1992 -42 c27 -30 149 -245 149 -262 0 -20 -29 -11 -43 12 -8 12 -46 75 -86
139 -65 104 -77 138 -52 138 4 0 19 -12 32 -27z m1938 13 c26 -31 34 -197 22
-453 -6 -136 -14 -258 -17 -270 -9 -33 -41 -28 -65 10 -18 28 -20 42 -14 125
5 69 3 92 -6 92 -23 0 -49 -33 -49 -61 0 -36 -16 -45 -32 -19 -8 13 -23 20
-43 20 -80 0 -131 101 -90 180 8 16 35 41 60 56 37 21 52 25 85 19 37 -6 40
-5 40 17 0 13 -16 56 -35 97 -19 40 -35 77 -35 83 0 19 51 79 84 99 37 22 79
25 95 5z m-2684 -76 c21 -23 12 -39 -13 -24 -19 12 -29 44 -14 44 5 0 17 -9
27 -20z m888 -68 c9 -10 18 -29 19 -43 4 -36 -24 -30 -44 10 -24 48 -8 70 25
33z m-463 -27 c7 -8 10 -22 6 -30 -8 -22 -46 -1 -46 25 0 24 22 26 40 5z m564
-10 c29 -27 35 -65 11 -65 -23 0 -65 46 -65 70 0 27 21 25 54 -5z m-830 -66
c31 -24 34 -54 6 -69 -25 -13 -40 -5 -40 21 0 10 -9 24 -20 31 -11 7 -20 18
-20 25 0 20 45 15 74 -8z m790 -2 c6 -9 7 -19 3 -23 -9 -9 -37 15 -37 33 0 18
20 12 34 -10z m1516 -8 c0 -5 -7 -9 -15 -9 -15 0 -20 12 -9 23 8 8 24 -1 24
-14z m-1372 -22 c23 -25 20 -37 -8 -37 -23 0 -44 26 -36 45 8 21 19 19 44 -8z
m-738 -32 c16 -20 1 -39 -26 -33 -27 5 -32 48 -6 48 11 0 25 -7 32 -15z m-274
-16 c3 -6 1 -16 -5 -22 -9 -9 -14 -8 -21 3 -9 15 -4 30 10 30 5 0 12 -5 16
-11z m146 -26 l4 -38 12 28 c18 42 38 28 34 -23 l-3 -43 19 24 c17 20 22 22
37 9 9 -7 14 -22 12 -32 -3 -11 3 -24 16 -33 18 -13 23 -13 37 0 9 8 26 15 37
15 25 0 73 -36 73 -56 0 -8 5 -14 10 -14 6 0 10 5 10 10 0 6 12 10 26 10 23 0
25 3 19 23 -4 12 -10 38 -14 57 -4 23 -9 31 -14 23 -5 -7 -12 -13 -18 -13 -14
0 -11 34 5 56 14 18 15 18 21 2 9 -22 35 -24 35 -3 0 8 5 15 10 15 13 0 13
-13 0 -26 -8 -8 -6 -15 5 -24 8 -7 15 -20 15 -29 1 -9 7 -1 15 17 15 35 29 41
42 17 7 -12 14 -12 46 -1 20 7 48 23 63 37 23 22 33 24 111 22 164 -3 325 -44
542 -138 82 -36 153 -65 158 -65 5 0 36 -19 69 -41 32 -23 71 -46 86 -51 58
-20 238 -277 238 -340 l0 -28 -62 6 c-90 8 -94 10 -73 34 30 33 10 33 -28 1
-19 -17 -44 -31 -56 -31 -13 0 -25 -9 -31 -24 -12 -33 -24 -38 -46 -21 -28 21
-34 18 -34 -15 0 -21 -8 -34 -27 -47 -15 -10 -36 -26 -45 -35 -24 -24 -45 -23
-60 2 -20 31 -29 24 -22 -18 5 -30 2 -41 -15 -56 -18 -16 -25 -17 -46 -8 -23
11 -25 10 -25 -17 0 -38 -22 -56 -49 -41 -18 9 -21 7 -27 -17 -9 -35 -23 -44
-46 -32 -16 9 -18 5 -18 -31 0 -38 -3 -42 -37 -57 -21 -8 -48 -24 -62 -34 -13
-10 -33 -19 -45 -19 -12 0 -27 -9 -34 -20 -7 -11 -19 -20 -26 -20 -19 0 -162
-94 -206 -136 -40 -38 -78 -54 -125 -54 -23 0 -46 -10 -76 -36 -50 -41 -102
-69 -156 -84 -21 -5 -88 -23 -149 -39 -134 -36 -284 -60 -419 -67 -97 -5 -102
-4 -180 28 -46 20 -81 41 -83 50 -2 9 20 42 49 74 28 33 73 91 99 130 68 100
194 185 345 234 39 12 74 26 79 31 5 4 -1 19 -12 34 -16 20 -19 32 -12 45 8
15 4 18 -30 24 -43 7 -70 35 -70 74 0 38 27 37 74 -2 53 -43 58 -44 50 -10 -7
29 7 44 43 44 12 0 25 5 28 10 4 7 -19 9 -67 8 -62 -3 -73 -1 -76 14 -2 12 6
21 23 28 35 13 152 13 160 0 6 -10 50 -7 99 7 38 11 -8 23 -86 23 -75 0 -78 1
-112 35 -20 19 -40 35 -46 35 -21 0 -9 27 38 85 93 117 164 260 148 301 -10
26 -24 14 -31 -27 -16 -96 -139 -286 -180 -277 -9 1 -16 6 -15 11 0 4 -7 21
-16 38 -8 17 -13 38 -9 47 3 9 -15 -5 -40 -31 -26 -26 -53 -47 -61 -47 -19 0
-18 7 8 42 19 28 19 29 2 20 -11 -6 -28 -20 -38 -31 -19 -21 -46 -28 -46 -13
0 5 13 26 30 48 33 44 42 72 9 30 -29 -37 -53 -35 -45 5 5 26 4 30 -8 20 -8
-7 -17 -24 -21 -39 -14 -55 -49 -68 -85 -32 -30 30 -25 53 28 117 63 77 156
217 180 273 24 54 66 100 91 100 10 0 24 7 31 15 22 26 39 17 42 -22z m206 5
c3 -27 -20 -54 -38 -43 -13 8 -13 31 1 56 14 26 33 19 37 -13z m62 -9 c0 -20
-24 -26 -35 -9 -8 13 14 42 26 34 5 -3 9 -14 9 -25z m-1979 -132 c-13 -13 -26
-3 -16 12 3 6 11 8 17 5 6 -4 6 -10 -1 -17z m-91 -23 c0 -8 -7 -14 -15 -14
-15 0 -21 21 -9 33 10 9 24 -2 24 -19z m16 -69 c-5 -19 -3 -23 9 -19 8 4 17
-1 21 -10 7 -19 -40 -86 -62 -86 -16 0 -19 26 -4 35 16 10 12 25 -5 19 -18 -7
-45 13 -45 32 0 8 11 19 24 24 13 5 27 14 31 19 3 6 13 11 22 11 11 0 14 -6 9
-25z m3907 -17 c19 -44 162 -179 230 -218 71 -40 93 -65 109 -125 7 -27 20
-61 30 -74 16 -21 16 -26 3 -52 -9 -17 -15 -57 -15 -104 0 -84 -3 -88 -90
-150 -51 -36 -123 -130 -159 -205 -24 -50 -26 -66 -26 -180 1 -102 4 -131 19
-160 30 -55 126 -143 189 -173 39 -18 61 -35 67 -53 12 -29 4 -71 -17 -96 -9
-9 -12 -25 -8 -36 3 -11 1 -23 -5 -27 -18 -11 -50 5 -50 26 0 23 -9 24 -25 2
-19 -26 -64 -1 -129 72 -66 75 -87 121 -126 270 -55 214 -59 407 -10 487 11
18 20 42 20 54 0 55 132 201 229 253 81 43 80 58 -8 105 -38 20 -97 57 -131
82 -51 39 -68 60 -101 125 -39 78 -48 130 -33 187 9 31 21 28 37 -10z m-3857
-112 c-9 -14 -21 -26 -26 -26 -5 0 -19 -18 -30 -41 -12 -22 -26 -39 -33 -36
-26 8 -15 44 29 100 42 52 48 57 62 43 13 -13 13 -18 -2 -40z m214 -19 c0 -7
-11 -29 -25 -50 -27 -38 -61 -49 -71 -22 -4 8 -15 15 -25 15 -19 0 -25 23 -13
54 8 20 33 21 40 2 4 -10 11 -8 30 10 19 20 28 23 44 14 11 -6 20 -16 20 -23z
m-202 -48 c-2 -6 -8 -10 -13 -10 -5 0 -11 4 -13 10 -2 6 4 11 13 11 9 0 15 -5
13 -11z m39 -59 c5 -23 -89 -174 -111 -178 -16 -3 -18 0 -12 25 4 15 22 53 40
83 18 30 36 63 39 73 8 21 40 19 44 -3z m-67 -4 c0 -19 -48 -68 -60 -61 -15 9
-12 19 11 49 22 28 49 35 49 12z m3918 -54 c38 -38 90 -78 116 -90 63 -30 62
-55 -5 -107 -28 -22 -73 -67 -101 -100 -61 -73 -72 -80 -89 -58 -18 21 -26
371 -9 402 6 12 13 21 15 21 2 0 35 -31 73 -68z m-3783 37 c0 -7 -8 -15 -17
-17 -18 -3 -25 18 -11 32 10 10 28 1 28 -15z m1542 -5 c11 -28 -79 -106 -99
-86 -7 7 4 25 32 56 46 49 57 55 67 30z m-414 -39 c5 -11 17 -13 54 -9 40 5
51 3 67 -15 11 -12 28 -21 38 -21 47 0 156 -94 145 -125 -6 -14 -10 -14 -43 0
-42 17 -58 19 -49 5 3 -5 16 -10 27 -10 45 0 150 -142 115 -156 -7 -2 -43 9
-82 25 -64 27 -72 29 -103 16 -40 -17 -95 -55 -89 -62 7 -6 61 23 76 41 29 35
108 8 221 -77 60 -44 71 -57 64 -69 -9 -15 -75 -8 -118 11 -23 11 -65 23 -93
27 l-51 6 -81 -77 c-45 -43 -81 -82 -81 -88 0 -6 13 1 28 16 36 35 46 34 39
-2 -4 -20 -2 -31 8 -35 35 -13 9 -46 -36 -46 -10 0 -33 -16 -50 -35 -38 -42
-54 -45 -45 -9 11 43 -11 18 -51 -58 -36 -69 -120 -165 -191 -218 -31 -23 -33
-27 -22 -51 26 -57 -59 -275 -157 -399 -95 -122 -107 -101 -73 130 18 130 20
163 5 148 -12 -11 -45 -191 -55 -298 -6 -63 -15 -137 -21 -163 -24 -104 24
-60 132 123 45 74 94 149 110 165 21 22 32 50 44 105 23 110 67 199 98 200 17
0 26 -53 18 -115 -7 -62 -6 -67 16 -83 l24 -17 -31 -69 c-21 -46 -29 -77 -25
-93 3 -14 1 -31 -6 -39 -9 -11 -9 -18 -1 -26 8 -8 4 -22 -14 -53 -21 -36 -22
-44 -9 -49 25 -9 18 -22 -45 -89 -33 -36 -60 -67 -60 -70 0 -2 9 -7 20 -10 31
-8 24 -31 -22 -67 -31 -25 -229 -201 -268 -238 -3 -3 31 14 75 37 96 49 175
116 279 234 43 48 83 87 90 87 9 0 15 -22 20 -62 5 -54 3 -64 -15 -84 l-21
-22 23 -4 c33 -4 35 -30 5 -65 -24 -28 -24 -29 -5 -41 24 -15 24 -38 -1 -86
l-19 -39 21 -17 c20 -16 20 -20 8 -49 -7 -17 -26 -50 -42 -72 -31 -44 -33 -63
-3 -29 10 11 24 20 32 20 29 0 10 -43 -48 -105 -34 -36 -58 -65 -55 -65 4 0
24 12 46 26 75 50 84 -7 13 -87 -28 -31 -39 -47 -26 -41 12 7 25 17 28 22 3 6
15 10 26 10 35 0 21 -37 -38 -102 -50 -54 -53 -59 -20 -35 37 28 67 30 67 5 0
-7 -26 -39 -57 -72 -56 -57 -57 -62 -1 -24 31 21 58 24 58 5 0 -7 -17 -33 -37
-58 -20 -24 -30 -38 -23 -31 16 14 60 16 60 3 0 -5 -18 -33 -41 -61 -37 -47
-40 -55 -29 -75 18 -34 5 -45 -50 -45 -72 0 -70 -18 2 -22 35 -1 65 1 66 5 2
4 15 21 29 37 31 37 53 39 53 4 0 -14 4 -23 9 -20 11 7 18 53 31 196 5 63 21
176 36 250 14 74 29 171 34 215 4 44 22 163 40 265 18 102 33 226 35 275 1 50
7 140 13 202 12 123 27 162 116 298 24 38 43 72 40 74 -9 9 -43 -33 -73 -89
-37 -69 -49 -79 -67 -55 -28 38 15 136 101 228 52 56 54 57 109 57 31 0 126
18 218 41 545 135 989 338 1262 576 43 37 108 94 144 126 73 63 209 137 251
137 33 0 56 -16 75 -54 12 -24 13 -33 2 -54 -20 -38 0 -72 41 -72 40 0 50 -15
28 -40 -16 -18 -16 -19 8 -25 36 -10 40 -31 10 -55 -28 -22 -18 -26 22 -8 21
9 29 9 41 -3 20 -21 9 -44 -27 -59 -41 -17 -37 -34 7 -27 66 11 88 -20 34 -48
-37 -19 -39 -28 -5 -19 30 7 34 -10 8 -38 -15 -17 -15 -18 9 -18 36 0 56 -26
40 -51 -16 -25 -15 -26 8 -32 11 -3 24 -16 29 -29 5 -13 16 -30 25 -37 8 -7
29 -49 46 -93 32 -83 110 -370 115 -423 5 -49 25 -171 50 -310 22 -121 45
-261 62 -380 4 -27 8 -68 9 -90 1 -22 11 -94 23 -160 45 -263 63 -720 29 -780
-9 -17 -67 -87 -128 -155 -213 -237 -262 -311 -335 -499 -52 -134 -126 -294
-146 -316 -10 -12 -24 -37 -31 -56 -17 -47 -85 -126 -98 -113 -5 5 -2 41 10
94 25 111 52 261 47 266 -4 4 -90 -321 -110 -416 -16 -75 -35 -115 -71 -149
-30 -28 -56 -22 -56 14 0 29 -7 31 -31 9 -34 -31 -54 12 -22 48 9 10 26 18 38
18 18 0 26 10 40 48 9 26 18 66 20 90 2 23 13 85 24 137 12 52 21 100 21 107
0 26 -20 -18 -30 -69 -11 -53 -33 -83 -45 -63 -3 5 -4 18 -1 28 5 17 44 268
71 461 8 58 15 121 14 140 -1 31 -3 28 -15 -24 -8 -33 -19 -98 -24 -145 -38
-334 -131 -733 -208 -885 -31 -62 -106 -160 -138 -181 -30 -20 -48 -8 -65 44
-6 20 -20 49 -30 64 -14 18 -19 44 -19 87 0 34 -9 87 -19 119 -11 31 -31 102
-46 157 -15 55 -65 233 -112 395 -129 446 -132 471 -59 484 20 4 52 14 72 22
35 15 35 16 19 34 -10 11 -15 26 -12 35 10 24 36 17 49 -12 6 -16 17 -42 24
-60 8 -17 14 -34 14 -38 0 -3 11 -21 24 -38 48 -63 120 -327 156 -571 11 -76
27 -164 35 -196 21 -82 19 -135 -11 -236 -15 -49 -29 -97 -31 -106 -3 -10 -1
-18 4 -18 5 0 23 38 41 85 28 74 32 98 32 179 0 59 -5 106 -15 128 -8 19 -28
123 -45 229 -34 221 -66 348 -114 464 -107 254 -107 255 -264 406 -134 129
-181 161 -212 141 -50 -31 -53 -2 -5 51 38 41 101 72 240 119 191 64 351 137
458 210 57 39 62 47 49 80 -6 15 -21 9 -102 -48 -109 -76 -165 -109 -199 -119
-21 -6 -23 -5 -18 16 3 13 11 38 18 55 7 17 9 39 6 49 -11 27 -30 5 -75 -89
-46 -93 -85 -133 -140 -141 -66 -10 -229 -65 -257 -87 -38 -29 -50 -12 -64 92
-6 47 -27 128 -46 180 -19 52 -51 157 -72 232 -20 76 -38 136 -40 135 -1 -2
13 -104 33 -228 19 -123 42 -266 50 -318 8 -52 16 -134 17 -182 3 -112 -8
-125 -109 -141 -38 -5 -100 -19 -138 -31 -67 -20 -70 -20 -145 -2 -42 9 -83
21 -92 26 -28 14 -55 87 -102 274 -72 289 -102 475 -117 718 -7 118 -8 109 -5
-88 l3 -220 51 -243 c55 -260 56 -272 41 -272 -13 0 -93 170 -126 267 -21 62
-42 235 -44 368 -1 19 -1 20 -12 1 -7 -13 -9 -65 -5 -160 5 -134 7 -147 50
-273 51 -149 97 -310 97 -341 0 -33 -31 -42 -152 -43 -143 -2 -128 -5 107 -24
105 -8 207 -19 227 -25 20 -6 62 -33 91 -60 44 -40 67 -74 119 -179 36 -71 62
-134 58 -140 -11 -19 -240 -61 -393 -72 -82 -6 -237 -9 -345 -7 -178 3 -203 6
-262 27 -36 14 -71 29 -78 34 -22 17 -8 40 33 53 l40 12 -73 1 c-104 1 -133
16 -161 82 -38 87 -40 274 -4 286 21 7 43 -42 49 -108 7 -63 38 -130 54 -112
3 4 12 26 18 49 7 23 23 58 37 78 13 20 20 36 15 36 -5 0 -17 -11 -26 -25 -21
-33 -44 -32 -44 0 0 15 -6 38 -14 54 -9 16 -11 33 -6 41 10 16 40 6 40 -15 0
-10 9 -15 28 -15 47 0 94 -38 149 -119 1 -2 10 2 19 10 14 11 18 11 30 -6 30
-40 9 -76 -46 -77 -19 -1 -36 6 -45 18 -14 18 -16 18 -29 2 -7 -10 -18 -18
-25 -18 -14 0 -14 45 0 71 6 11 8 25 6 32 -4 9 -67 -113 -67 -129 0 -2 28 -4
63 -4 67 1 131 12 187 34 19 8 71 22 114 31 72 16 78 19 61 31 -10 8 -32 14
-48 14 -17 0 -72 14 -124 30 -51 17 -99 30 -107 30 -8 0 -35 18 -61 39 -71 59
-172 82 -278 65 -34 -6 -36 -8 -19 -20 16 -11 20 -32 26 -146 7 -125 9 -138
44 -212 35 -76 39 -80 97 -107 33 -16 74 -29 90 -29 48 -1 106 -17 124 -35 15
-15 13 -19 -17 -44 -22 -19 -31 -33 -26 -45 6 -14 1 -16 -33 -10 -34 5 -51 0
-109 -29 -160 -83 -170 -84 -247 -28 -35 26 -97 64 -138 86 -41 21 -92 50
-114 65 -22 15 -50 30 -62 34 -12 4 -45 23 -72 42 -28 19 -52 34 -54 34 -2 0
-2 -12 1 -27 5 -25 3 -26 -30 -20 -19 3 -52 13 -74 24 -32 15 -40 24 -42 51
-3 26 0 32 17 32 11 0 22 -4 25 -9 6 -8 46 -22 46 -16 0 8 -161 124 -180 130
-15 5 -20 14 -18 28 3 20 8 22 54 19 66 -5 233 42 325 91 37 19 105 50 153 68
92 35 105 46 35 30 -55 -13 -160 -14 -192 -2 -13 5 -27 18 -29 29 -3 12 -16
22 -29 24 -19 2 -25 10 -27 38 -2 19 -18 55 -38 81 -59 80 -64 103 -75 322
-11 228 -27 346 -66 461 l-26 80 23 18 c12 10 30 18 40 18 10 0 37 7 60 15 50
18 62 13 50 -19 -6 -17 -2 -53 16 -122 29 -120 30 -144 4 -177 -25 -31 -25
-37 -2 -37 34 0 52 -23 55 -72 1 -26 6 -50 10 -54 13 -13 7 -34 -9 -34 -11 0
-15 6 -11 20 7 27 -8 25 -27 -2 -21 -30 -20 -41 3 -28 30 16 34 -3 12 -60
l-20 -52 33 38 c22 26 38 36 49 31 21 -8 10 -43 -38 -118 -18 -30 -31 -56 -29
-59 8 -7 42 39 75 104 l31 58 -21 57 c-12 31 -26 91 -31 134 -5 42 -17 105
-26 139 -19 75 -14 82 74 91 101 11 117 25 22 20 -77 -5 -88 -3 -112 17 -40
31 -38 83 3 133 46 56 71 49 85 -25 14 -72 21 -88 34 -88 27 0 -18 185 -54
227 -28 33 -45 26 -22 -9 10 -16 12 -28 5 -38 -8 -13 -11 -12 -24 4 -8 11 -15
26 -15 33 0 21 -15 15 -62 -22 -67 -54 -125 -82 -146 -69 -32 20 -27 62 12 99
20 18 36 41 36 49 0 20 35 53 82 77 44 23 48 23 48 6 0 -7 -16 -28 -35 -47
-19 -18 -32 -36 -30 -40 2 -4 31 6 63 22 69 35 161 48 180 26 8 -10 9 -24 2
-46 -11 -41 5 -42 19 -1 14 39 31 34 49 -17 17 -48 11 -246 -8 -269 -7 -8 -11
-15 -9 -15 22 0 141 31 155 40 18 11 18 11 -1 5 -11 -4 -37 -9 -57 -12 -29 -4
-38 -2 -38 9 0 17 47 85 73 107 9 7 17 18 17 24 0 6 -3 7 -7 4 -11 -12 -33 15
-33 41 0 15 18 114 39 222 22 107 45 229 51 270 6 41 17 102 25 135 8 33 17
76 21 95 3 19 17 57 31 83 20 41 27 47 50 45 26 -3 28 0 45 77 40 178 49 210
74 264 27 58 60 142 123 319 39 112 66 152 103 152 13 1 34 7 48 15 23 13 23
14 4 15 -11 0 -24 3 -27 7 -10 9 19 52 64 94 22 20 39 45 39 56 0 33 23 45 33
18z m-532 -147 c83 -77 94 -101 60 -132 -11 -10 -25 -32 -32 -49 -20 -50 -60
-107 -75 -107 -7 0 -18 8 -23 18 -12 23 -41 220 -41 281 0 82 9 81 111 -11z
m964 43 c34 -5 40 -9 40 -31 0 -36 -45 -50 -88 -27 -55 31 -70 45 -63 62 5 13
13 15 38 9 18 -4 51 -10 73 -13z m-1205 -11 c0 -15 -34 -75 -47 -83 -7 -4 -13
-16 -13 -25 0 -9 -5 -24 -10 -32 -9 -13 -11 -13 -20 0 -15 22 -13 137 3 143
19 7 87 5 87 -3z m-520 -76 c0 -8 -4 -12 -10 -9 -5 3 -10 10 -10 16 0 5 5 9
10 9 6 0 10 -7 10 -16z m117 -49 c-21 -45 -21 -48 2 -35 27 14 31 13 31 -12 0
-25 -70 -121 -105 -144 -35 -23 -45 -11 -39 44 6 43 54 140 92 185 26 29 39 3
19 -38z m4520 -96 c13 -20 37 -90 54 -155 34 -134 34 -189 -2 -365 -39 -197
-81 -289 -131 -289 -10 0 -18 -7 -18 -15 0 -9 -6 -12 -15 -9 -20 8 -19 34 1
34 13 0 15 5 9 23 -14 42 -4 112 30 213 53 154 46 214 -35 339 -16 25 -20 56
-26 165 -4 95 -3 144 6 165 l12 30 45 -50 c25 -27 57 -66 70 -86z m-4627 62
c0 -12 -20 -25 -27 -18 -7 7 6 27 18 27 5 0 9 -4 9 -9z m490 -16 c0 -8 -4 -15
-10 -15 -5 0 -10 7 -10 15 0 8 5 15 10 15 6 0 10 -7 10 -15z m30 -48 c0 -20
-30 -57 -46 -57 -18 0 -18 20 2 48 16 24 44 30 44 9z m-350 -44 c0 -16 -71
-89 -118 -120 -18 -13 -26 -13 -35 -4 -9 9 3 26 54 77 66 63 99 79 99 47z m50
-47 c0 -23 -162 -166 -187 -166 -29 0 -29 15 1 43 13 12 50 48 84 80 57 55
102 74 102 43z m4028 -325 c2 -352 -1 -380 -38 -346 -25 22 -34 79 -19 122 16
49 2 60 -51 39 -55 -22 -65 -21 -101 12 -58 52 -57 163 2 215 29 27 36 28 85
22 65 -8 69 3 24 60 -45 57 -39 111 21 179 21 25 39 36 53 34 21 -3 21 -6 24
-337z m-3812 304 c8 -20 -13 -45 -37 -45 -23 0 -25 23 -3 44 19 20 33 20 40 1z
m2446 -30 c0 -5 -5 -11 -11 -13 -6 -2 -11 4 -11 13 0 9 5 15 11 13 6 -2 11 -8
11 -13z m-2515 -51 c4 -13 -92 -125 -145 -169 -23 -20 -36 -25 -44 -17 -13 13
-2 29 87 128 63 70 92 87 102 58z m4183 -145 c19 -69 -5 -179 -30 -138 -15 23
-22 123 -11 152 15 38 28 34 41 -14z m-3740 -24 c0 -9 7 -30 16 -47 21 -40 12
-86 -28 -134 -17 -22 -49 -77 -71 -124 -57 -120 -157 -221 -157 -159 0 24 109
358 123 377 18 24 27 11 28 -40 l1 -53 12 60 c7 33 21 77 31 98 19 37 45 50
45 22z m268 -257 c-6 -18 -28 -21 -28 -4 0 9 7 16 16 16 9 0 14 -5 12 -12z
m90 -12 c3 -12 -1 -17 -10 -14 -7 3 -15 13 -16 22 -3 12 1 17 10 14 7 -3 15
-13 16 -22z m161 -48 c10 -27 -3 -58 -25 -58 -21 0 -29 27 -16 56 14 30 30 31
41 2z m-119 -14 c14 -37 12 -85 -5 -117 -10 -19 -12 -34 -6 -46 16 -30 -3 -46
-41 -35 -38 11 -47 38 -28 84 8 19 8 34 2 47 -14 28 -4 45 19 33 16 -9 19 -7
19 9 0 51 24 67 40 25z m230 -28 c0 -15 -94 -106 -110 -106 -16 0 -23 26 -16
55 11 45 126 92 126 51z m3292 -102 c13 -206 14 -457 1 -461 -6 -2 -25 16 -42
40 -17 25 -60 68 -95 96 -72 56 -92 99 -83 176 6 60 44 135 66 135 18 0 32 13
94 94 16 21 34 35 40 33 8 -2 15 -44 19 -113z m-4072 -38 c0 -20 -19 -31 -32
-18 -6 6 -7 15 -4 21 10 16 36 13 36 -3z m-92 -24 c2 -7 -3 -12 -12 -12 -9 0
-16 7 -16 16 0 17 22 14 28 -4z m-38 -41 c0 -11 -5 -23 -11 -27 -15 -9 -33 12
-26 30 9 23 37 20 37 -3z m115 10 c9 -16 -28 -82 -45 -78 -18 3 -15 32 6 65
15 23 29 28 39 13z m3386 -67 c7 -8 34 -27 61 -40 50 -25 64 -54 27 -54 -11 0
-33 -8 -47 -19 -39 -27 -67 -34 -80 -19 -9 11 -16 88 -13 136 1 17 36 15 52
-4z m-3441 -94 c0 -55 -28 -122 -49 -118 -19 4 -18 28 4 106 19 65 45 72 45
12z m3658 -65 c5 -77 -11 -116 -68 -164 -28 -24 -60 -63 -72 -87 -13 -29 -26
-44 -36 -42 -19 4 -41 66 -49 139 -12 119 78 213 197 206 23 -2 25 -7 28 -52z
m-3745 -35 c0 -40 -20 -61 -36 -39 -7 9 -21 18 -32 20 -31 6 -33 62 -3 83 21
15 24 15 47 -8 15 -16 24 -36 24 -56z m692 41 c3 -5 1 -12 -5 -16 -5 -3 -10 1
-10 9 0 18 6 21 15 7z m3399 -51 c46 -41 94 -114 107 -164 5 -23 16 -55 24
-71 8 -17 17 -71 20 -120 6 -81 4 -99 -20 -175 -52 -163 -118 -280 -177 -311
-31 -17 -48 6 -48 65 0 43 9 69 55 158 88 170 104 272 59 386 -28 71 -49 102
-70 102 -30 0 -46 32 -39 79 13 89 33 100 89 51z m-4244 -84 c0 -15 -55 -66
-70 -66 -24 0 -20 26 9 52 34 30 61 37 61 14z m126 -13 c20 -26 17 -77 -6
-104 -17 -21 -21 -22 -30 -9 -11 17 -13 89 -4 114 8 21 24 20 40 -1z m3764
-39 c11 -28 14 -163 4 -188 -9 -25 -30 -19 -59 16 -25 30 -27 37 -21 92 10 93
54 140 76 80z m-3890 -23 c0 -5 -6 -14 -14 -20 -16 -13 -32 2 -21 19 8 12 35
13 35 1z m4207 -37 c39 -60 54 -219 28 -293 -37 -107 -65 -137 -81 -88 -10 27
-9 381 1 396 11 19 34 12 52 -15z m-3338 -19 c2 -10 -4 -24 -12 -30 -13 -9
-14 -18 -5 -54 6 -23 8 -45 4 -49 -13 -13 -41 16 -48 49 -4 19 -10 47 -14 63
-6 26 -5 29 15 23 14 -3 24 0 28 9 7 19 27 12 32 -11z m-979 -149 c0 -8 -5
-18 -11 -22 -14 -8 -33 11 -25 25 10 16 36 13 36 -3z m976 -42 c-5 -13 -10
-14 -18 -6 -6 6 -8 18 -4 28 5 13 10 14 18 6 6 -6 8 -18 4 -28z m3013 -1 c31
-24 38 -52 40 -155 1 -72 3 -78 22 -78 12 0 19 -5 16 -12 -2 -7 -11 -12 -21
-10 -13 2 -16 -6 -16 -41 0 -55 -19 -76 -45 -50 -15 14 -17 29 -11 90 6 79 0
88 -44 61 -44 -28 -84 33 -84 129 0 80 13 97 72 90 24 -3 56 -14 71 -24z
m-3059 -244 c0 -10 -6 -19 -13 -19 -22 0 -27 11 -16 32 12 22 29 15 29 -13z
m3576 -54 c10 -24 14 -73 14 -158 0 -152 -5 -162 -76 -153 -27 3 -79 9 -117
12 -54 5 -70 10 -78 26 -17 32 4 68 38 68 34 0 133 88 133 118 0 11 7 25 15
32 8 7 15 18 15 26 0 23 19 64 30 64 6 0 18 -16 26 -35z m-546 -125 c22 -11
46 -20 54 -20 40 0 58 -80 34 -147 -10 -28 -10 -35 6 -46 11 -8 21 -37 28 -85
15 -95 9 -101 -74 -77 -101 30 -99 27 -92 93 8 64 16 79 47 84 36 5 25 30 -20
46 l-43 14 0 72 c0 64 4 86 17 86 2 0 21 -9 43 -20z m254 -296 c12 -31 6 -50
-24 -76 -16 -14 -30 -36 -30 -47 0 -12 -4 -21 -9 -21 -14 0 -18 80 -5 98 6 9
10 22 7 29 -3 7 2 13 11 13 9 0 16 5 16 10 0 16 27 11 34 -6z m-198 -126 c30
-8 49 -20 54 -33 10 -26 18 -205 9 -205 -3 0 -23 14 -44 30 -21 17 -48 30 -62
30 -32 0 -45 36 -37 108 9 93 6 90 80 70z m-5011 -58 c3 -5 -1 -10 -9 -10 -9
0 -16 5 -16 10 0 6 4 10 9 10 6 0 13 -4 16 -10z m261 -121 c3 -6 1 -16 -4 -21
-13 -13 -45 8 -36 23 7 12 31 11 40 -2z m84 1 c0 -5 -4 -10 -10 -10 -5 0 -10
5 -10 10 0 6 5 10 10 10 6 0 10 -4 10 -10z m2840 -20 c85 -43 181 -157 195
-230 5 -29 2 -39 -15 -55 -19 -17 -26 -18 -66 -7 -24 7 -55 12 -69 12 -22 0
-25 -4 -25 -40 0 -47 -17 -52 -33 -10 -13 34 -37 41 -37 11 0 -27 -15 -34 -42
-20 -14 8 -23 8 -25 2 -2 -6 -10 -19 -18 -29 -15 -18 -16 -18 -40 11 -22 27
-25 28 -30 10 -17 -53 -25 -64 -39 -59 -9 3 -18 21 -22 40 -5 25 -11 34 -26
34 -27 0 -60 -18 -84 -48 -31 -38 -50 -23 -96 75 -53 115 -59 155 -27 189 37
40 57 47 150 55 68 5 97 13 133 34 94 55 144 61 216 25z m-3132 3 c5 -18 -28
-29 -38 -12 -5 7 -6 17 -3 22 7 12 35 5 41 -10z m4972 -65 c43 -81 70 -187 70
-273 0 -91 -10 -116 -37 -99 -14 9 -20 8 -29 -4 -6 -8 -16 -12 -22 -8 -16 10
-15 22 4 40 13 14 14 22 5 49 -14 39 -58 107 -70 107 -19 0 -95 -85 -145 -163
-99 -152 -111 -246 -44 -336 25 -33 23 -60 -10 -112 -15 -24 -34 -59 -41 -76
-7 -18 -20 -33 -27 -33 -12 0 -14 49 -14 283 0 326 -10 290 116 431 79 88 124
147 156 205 26 47 60 42 88 -11z m-2460 -23 c0 -8 -6 -15 -14 -15 -17 0 -28
14 -19 24 12 12 33 6 33 -9z m-2470 -63 c0 -15 -5 -33 -12 -40 -7 -7 4 -7 38
3 223 63 226 64 253 30 11 -15 21 -35 21 -44 0 -9 4 -22 9 -29 4 -7 6 11 3 41
-5 62 8 79 39 51 16 -15 19 -32 20 -123 l2 -106 8 85 c13 127 18 150 35 150
23 0 34 -45 34 -143 0 -107 -12 -138 -58 -153 l-33 -10 53 -11 c77 -15 220
-54 241 -65 9 -5 18 -21 18 -36 1 -22 2 -23 6 -5 2 12 11 27 19 33 19 17 44
-4 44 -37 0 -25 1 -25 25 -9 42 28 61 20 56 -22 -2 -10 2 -11 18 -3 37 20 54
14 48 -16 -4 -22 0 -32 19 -46 23 -17 23 -17 44 23 11 22 23 40 27 40 11 0 53
-43 53 -54 0 -5 -14 -25 -32 -43 -41 -42 -31 -51 18 -18 l39 26 18 -22 c15
-19 21 -21 38 -11 48 30 71 -11 23 -43 -34 -22 -24 -31 15 -11 37 20 48 6 24
-30 l-18 -28 46 27 c25 15 49 27 52 27 18 0 3 -36 -27 -71 -19 -21 -40 -56
-47 -79 -15 -50 -9 -55 66 -65 61 -9 112 -29 142 -57 27 -25 29 -18 7 24 -21
41 -12 48 106 80 133 37 183 44 435 63 82 6 212 -35 475 -150 144 -63 240 -93
441 -140 53 -13 106 -28 117 -34 11 -6 34 -11 50 -11 41 0 206 -63 247 -94 58
-45 71 -31 31 33 -28 43 -84 93 -132 116 -17 8 -85 19 -150 25 -154 14 -228
26 -306 50 -35 11 -71 20 -80 20 -22 0 -194 60 -268 93 -30 13 -86 34 -125 47
-79 25 -116 53 -98 71 19 19 97 28 238 28 137 1 237 -10 296 -33 19 -8 89 -22
155 -31 108 -15 130 -21 230 -71 138 -67 214 -75 150 -15 -20 19 -32 22 -59
17 -29 -5 -35 -3 -40 13 -5 20 -25 27 -145 51 -69 14 -125 45 -130 73 -2 10 7
28 20 40 20 19 28 43 42 132 24 144 42 202 69 220 12 8 50 21 85 29 61 14 63
14 76 -7 8 -12 22 -60 31 -107 9 -47 20 -89 25 -95 5 -6 20 -57 34 -115 34
-136 100 -363 137 -470 17 -51 33 -125 39 -185 6 -55 17 -142 26 -193 18 -107
26 -116 126 -139 60 -14 60 -14 120 17 42 22 95 67 174 146 74 75 115 110 120
102 11 -18 5 -85 -16 -200 -25 -127 -24 -150 0 -78 17 50 33 70 97 120 20 16
41 103 53 213 14 132 22 161 73 259 60 116 88 127 108 42 15 -69 11 -151 -11
-195 l-21 -40 25 7 c18 4 25 1 28 -13 4 -17 -9 -73 -27 -117 -7 -15 -5 -17 13
-12 31 10 49 -30 33 -75 -9 -27 -8 -35 6 -51 16 -18 18 -16 38 40 25 70 75
147 95 147 23 0 16 -71 -14 -145 -18 -43 -23 -67 -16 -74 40 -40 -37 -255
-151 -421 -55 -81 -88 -114 -181 -178 -103 -73 -293 -127 -442 -127 -89 0
-275 84 -403 182 -79 61 -134 95 -191 117 -26 10 -108 56 -182 102 -74 45
-159 95 -187 111 -29 16 -91 57 -137 91 -47 34 -99 70 -117 80 -23 12 -30 23
-26 37 4 14 -4 22 -34 34 -22 9 -48 16 -58 16 -11 0 -62 34 -114 75 -62 48
-104 75 -121 75 -45 0 -37 -18 21 -51 62 -35 307 -205 359 -249 17 -15 62 -44
100 -65 38 -21 143 -82 234 -135 91 -53 203 -118 250 -145 47 -26 128 -77 180
-113 110 -76 255 -147 390 -193 80 -28 113 -33 210 -37 86 -3 117 -8 123 -18
10 -17 49 11 169 124 43 39 86 72 95 72 12 0 27 18 43 52 27 56 73 99 90 82
14 -14 -42 -282 -84 -397 -41 -112 -51 -133 -81 -167 -12 -14 -27 -43 -33 -65
-16 -55 -49 -106 -73 -112 -11 -3 -19 -14 -19 -27 0 -35 -116 -201 -175 -251
-58 -50 -158 -99 -285 -140 -199 -65 -453 -36 -633 72 -31 19 -63 33 -70 30
-12 -4 99 -81 135 -92 11 -4 18 -14 16 -23 -4 -24 -66 -27 -147 -8 -36 9 -104
20 -151 26 -131 17 -214 38 -344 86 -158 59 -233 100 -341 185 -49 39 -119 92
-155 117 -120 85 -234 185 -473 419 -131 128 -243 233 -249 233 -6 0 -7 -7 -4
-16 3 -9 6 -19 6 -23 0 -4 59 -59 130 -121 72 -63 130 -117 130 -122 0 -17
150 -180 205 -222 92 -69 188 -163 183 -178 -3 -7 -18 -15 -34 -18 -24 -5 -96
-35 -114 -48 -3 -2 9 -15 25 -28 29 -24 30 -25 10 -39 -38 -28 -45 -36 -45
-58 0 -80 -209 -371 -300 -417 -62 -31 -169 -43 -335 -37 -157 6 -244 20 -385
60 -47 14 -101 28 -120 32 -56 12 -266 121 -289 151 -33 42 -35 68 -10 138 13
36 20 68 16 73 -11 10 -23 -11 -47 -84 -41 -120 -71 -103 -51 29 13 87 9 113
-8 51 -15 -54 -14 -139 4 -172 17 -34 82 -79 183 -127 39 -20 72 -42 72 -49 0
-7 10 -15 23 -17 14 -2 23 -11 25 -26 3 -23 5 -23 22 -7 43 39 69 -19 30 -67
-11 -14 -40 -35 -65 -47 -48 -22 -52 -41 -9 -41 41 0 86 25 152 84 34 31 65
56 67 56 24 0 55 -23 55 -41 0 -36 -136 -168 -329 -318 -31 -24 -79 -65 -107
-90 -65 -59 -211 -174 -244 -192 -14 -8 -43 -28 -65 -45 -44 -34 -172 -117
-317 -206 -105 -65 -416 -217 -495 -242 -28 -10 -57 -24 -63 -32 -11 -12 -6
-14 29 -14 42 0 228 72 280 109 14 10 48 28 75 40 27 12 88 46 136 76 47 30
111 66 141 80 122 58 273 156 395 258 107 88 147 117 164 117 23 0 187 119
269 194 36 34 100 90 141 125 41 36 84 75 96 88 16 19 29 24 54 21 18 -2 35
-9 38 -16 12 -39 -523 -518 -768 -687 -31 -22 -91 -61 -131 -87 -41 -26 -92
-64 -114 -83 l-40 -37 70 38 c246 131 472 307 805 627 l254 244 155 6 c86 3
172 10 191 16 26 8 37 8 47 -2 10 -10 1 -27 -51 -89 -71 -85 -151 -210 -228
-356 -141 -267 -310 -512 -378 -547 -34 -17 -103 -20 -131 -4 -12 6 -28 8 -37
4 -16 -6 -16 -7 1 -16 25 -15 21 -46 -9 -66 -25 -16 -27 -16 -43 3 -9 11 -24
18 -33 16 -36 -7 -21 22 72 148 31 41 81 113 111 160 63 96 197 276 274 365
94 110 207 264 202 277 -6 17 -69 -51 -160 -172 -40 -52 -121 -153 -181 -225
-60 -71 -151 -191 -204 -265 -53 -74 -130 -182 -171 -240 -42 -57 -89 -125
-105 -150 -16 -25 -43 -67 -61 -95 -18 -27 -59 -80 -91 -117 -32 -36 -97 -112
-144 -168 -102 -122 -131 -139 -240 -140 -219 0 -491 166 -370 227 31 16 89
17 127 2 15 -6 78 -23 138 -39 61 -16 131 -36 156 -44 40 -12 50 -12 77 1 60
29 82 58 82 106 0 58 -23 86 -80 98 -61 11 -186 11 -295 -1 -90 -10 -402 -70
-505 -96 -70 -18 -153 -8 -375 45 -88 21 -190 43 -227 49 -52 8 -86 21 -151
61 -46 28 -90 57 -96 65 -7 8 -40 28 -74 44 -73 34 -117 75 -117 109 0 17 25
47 87 106 252 238 448 465 658 761 28 39 81 110 118 159 37 48 78 109 91 135
13 26 54 87 90 136 37 49 88 126 114 173 25 46 79 128 119 181 40 52 76 105
79 116 4 11 24 43 45 71 20 27 71 112 113 188 41 76 84 150 94 165 11 15 43
74 72 132 29 58 61 117 72 132 11 16 61 112 113 215 144 288 200 373 328 493
121 114 164 138 302 170 181 42 211 52 288 95 96 55 127 61 204 41 34 -9 74
-16 89 -16 23 1 14 7 -43 33 -40 17 -73 37 -73 43 0 7 19 28 43 48 23 20 36
36 30 36 -7 0 -51 -18 -99 -41 -64 -30 -91 -49 -105 -74 -30 -50 -129 -81
-129 -40 0 24 -18 18 -42 -15 -23 -32 -58 -40 -58 -14 0 9 18 36 40 60 50 55
55 80 10 52 -29 -18 -35 -3 -17 42 19 48 9 52 -23 8 -13 -18 -42 -52 -63 -75
-45 -49 -40 -55 14 -17 66 45 81 8 22 -57 -44 -48 -73 -64 -133 -74 -93 -14
-137 -35 -206 -98 -154 -141 -306 -364 -441 -647 -33 -69 -67 -132 -77 -140
-16 -13 -20 -12 -32 5 -8 11 -18 35 -23 55 -28 117 -64 295 -87 430 -14 85
-30 165 -35 177 -5 13 -18 78 -29 146 -12 67 -30 168 -40 225 -40 206 -21 360
62 512 23 41 47 89 55 105 8 17 19 41 26 55 16 33 133 120 227 170 68 36 72
39 43 40 -44 0 -50 17 -17 51 37 39 74 39 74 1z m-705 -13 c8 -13 -17 -43 -69
-80 -44 -32 -56 -36 -56 -15 0 14 95 106 110 106 5 0 12 -5 15 -11z m25 -59
c0 -5 -7 -10 -15 -10 -8 0 -15 5 -15 10 0 6 7 10 15 10 8 0 15 -4 15 -10z
m1201 -51 c15 -28 7 -126 -12 -144 -26 -26 -44 -1 -43 59 2 72 11 106 29 106
8 0 19 -10 26 -21z m2649 -34 c0 -8 -4 -15 -10 -15 -5 0 -10 7 -10 15 0 8 5
15 10 15 6 0 10 -7 10 -15z m-2510 -55 c25 -25 28 -88 3 -97 -19 -8 -63 38
-63 67 0 51 26 64 60 30z m2142 -25 c9 -21 8 -28 -7 -45 -26 -29 -55 -26 -55
6 0 59 41 85 62 39z m2042 -7 c7 -13 19 -46 25 -73 15 -63 3 -121 -39 -206
-27 -53 -29 -59 -12 -59 23 0 43 22 71 78 15 29 27 42 39 40 14 -3 17 -18 20
-102 3 -92 1 -102 -29 -167 -37 -79 -63 -109 -81 -91 -12 12 -31 72 -47 152
-5 25 -17 49 -27 55 -40 23 -94 79 -94 97 0 20 51 172 71 211 22 42 60 87 74
87 8 0 21 -10 29 -22z m-4269 -18 c0 -13 -6 -25 -12 -27 -16 -6 -27 21 -19 43
9 23 31 11 31 -16z m-1435 -55 c63 -13 130 -29 149 -36 21 -8 65 -10 121 -6
99 6 126 2 135 -21 3 -8 -9 -61 -27 -116 -32 -96 -33 -108 -32 -251 0 -124 5
-173 28 -280 43 -206 134 -688 142 -752 4 -44 3 -62 -7 -70 -8 -6 -66 -21
-129 -33 -139 -28 -203 -49 -289 -96 -153 -84 -309 -228 -368 -340 -54 -101
-44 -127 52 -141 26 -3 49 -12 52 -18 5 -14 -10 -65 -52 -184 -21 -57 -28
-100 -32 -187 -7 -136 -8 -135 107 -109 43 10 88 15 99 12 14 -3 24 1 31 13
15 28 40 50 56 50 25 0 15 -37 -26 -91 -22 -30 -40 -57 -40 -61 0 -13 -89
-138 -139 -198 -52 -60 -216 -286 -246 -338 -11 -18 -26 -31 -35 -30 -13 3
-16 61 -20 448 -3 245 -7 447 -8 449 -1 3 -8 -1 -14 -7 -10 -10 -14 -129 -18
-500 l-5 -488 -81 -109 c-44 -61 -99 -137 -121 -170 -75 -111 -105 -119 -144
-38 -18 37 -23 67 -26 162 -13 408 -22 618 -28 633 -4 9 -34 33 -67 53 -33 21
-96 73 -140 116 l-80 79 -122 -98 c-67 -53 -150 -118 -184 -145 -35 -26 -67
-58 -72 -71 -5 -15 -5 -139 2 -314 8 -211 7 -299 -1 -322 -8 -25 -7 -38 4 -60
8 -16 15 -42 15 -59 0 -25 -8 -33 -53 -59 -29 -16 -68 -49 -87 -72 -19 -23
-50 -56 -69 -73 -99 -92 -151 -151 -141 -161 16 -16 12 -43 -19 -104 -16 -31
-41 -92 -56 -134 -30 -85 -52 -111 -86 -106 -48 6 -63 100 -34 208 8 30 15 69
15 86 0 16 6 39 14 50 10 13 13 33 9 63 -6 42 -5 44 16 38 14 -3 21 -1 18 6
-2 7 -12 14 -23 15 -30 6 -39 19 -24 37 8 10 9 19 2 27 -6 8 -12 198 -15 493
-3 264 -11 572 -17 685 -7 121 -12 605 -13 1180 -2 988 -1 1013 32 1080 11 21
241 54 258 37 8 -9 13 -180 18 -622 3 -335 8 -622 11 -637 7 -35 20 -35 55 -2
25 24 38 27 144 34 102 7 122 12 157 35 l40 27 -7 206 c-3 114 -7 391 -8 615
-2 467 -10 431 92 442 31 4 76 11 100 16 53 12 80 4 86 -24 2 -12 8 -285 13
-607 l9 -585 1 585 c0 322 3 593 7 602 10 25 60 36 228 48 81 6 153 13 160 15
23 9 222 32 234 28 10 -4 13 -133 15 -581 2 -400 6 -576 14 -579 31 -10 34 49
34 607 0 311 4 569 9 583 5 13 47 51 93 85 45 33 105 84 133 111 27 28 56 51
65 51 8 0 67 -11 130 -25z m-2830 -62 c25 -3 81 -6 125 -7 l80 -1 6 -30 c10
-45 10 -138 0 -153 -6 -10 -47 -15 -153 -19 -171 -7 -211 2 -227 49 -15 43
-14 143 2 156 14 12 84 21 107 14 8 -2 35 -6 60 -9z m6440 6 c62 -13 70 -33
40 -110 -39 -99 -89 -178 -116 -185 -14 -4 -71 -2 -125 5 -55 6 -148 11 -207
11 -122 0 -152 12 -152 59 0 30 17 50 67 75 40 20 60 12 78 -32 14 -33 17 -34
55 -29 56 7 67 20 75 80 4 29 14 63 22 75 34 54 147 76 263 51z m1737 -50 c8
-23 12 -131 12 -344 l1 -310 -42 -88 c-29 -61 -46 -87 -57 -85 -23 5 -26 97
-5 163 11 36 14 68 10 97 -18 118 -28 303 -22 399 7 92 12 113 37 158 17 29
36 51 42 48 7 -2 17 -19 24 -38z m-2220 -6 c10 -28 -193 -126 -400 -194 -53
-18 -97 -36 -97 -41 0 -4 18 -11 40 -14 39 -6 50 -17 31 -29 -6 -3 -59 -12
-118 -21 -105 -15 -308 -68 -327 -85 -26 -24 -146 5 -146 34 0 19 29 44 61 52
23 6 28 3 37 -24 13 -36 27 -39 50 -12 10 12 51 28 100 40 46 11 96 31 115 45
17 13 57 34 87 46 72 27 202 91 170 84 -14 -4 -108 -42 -210 -85 -204 -86
-235 -96 -245 -80 -15 25 9 51 78 86 40 19 83 42 97 50 43 25 203 87 252 98
57 13 85 -2 67 -35 -14 -27 -7 -31 20 -12 18 13 20 19 10 30 -10 12 -9 18 4
31 22 22 50 10 42 -18 -10 -31 10 -24 148 54 36 20 128 20 134 0z m-5637 -98
c0 -31 -40 -51 -71 -35 -24 13 -26 66 -2 99 l16 24 29 -32 c15 -17 28 -43 28
-56z m6221 62 c-13 -13 -26 -3 -16 12 3 6 11 8 17 5 6 -4 6 -10 -1 -17z m-31
-103 c0 -8 9 -14 21 -14 27 0 22 -31 -8 -45 -12 -6 -31 -22 -42 -36 -18 -22
-20 -23 -27 -6 -7 19 11 93 28 114 12 15 28 8 28 -13z m-652 -52 c3 -27 0 -32
-18 -32 -26 0 -35 22 -20 50 16 29 34 20 38 -18z m-5785 13 l217 0 0 -71 c0
-46 -5 -75 -13 -82 -17 -14 -213 -37 -312 -36 -104 0 -158 16 -185 54 -25 34
-35 87 -26 126 7 25 8 26 54 18 26 -5 145 -9 265 -9z m5715 -18 c5 -23 -15
-47 -38 -47 -25 0 -31 24 -13 49 17 25 46 24 51 -2z m-91 -33 c7 -18 -6 -45
-24 -51 -18 -6 -57 33 -50 50 9 23 65 23 74 1z m-4313 -17 c8 -13 7 -24 -4
-45 -15 -25 -25 -29 -154 -51 -161 -27 -188 -23 -183 30 3 39 11 44 112 60 44
7 100 16 125 20 65 10 91 6 104 -14z m-10 -134 c4 -16 10 -268 13 -560 5 -443
3 -536 -8 -549 -12 -15 -29 -16 -125 -11 -68 4 -115 2 -121 -4 -15 -15 -43 1
-55 30 -12 33 -18 212 -21 693 -1 288 1 380 10 389 15 15 144 36 234 38 65 1
67 0 73 -26z m-1237 -28 c23 -16 27 -43 42 -255 8 -114 8 -116 62 -215 30 -54
71 -116 91 -136 31 -30 35 -39 24 -48 -35 -29 -233 87 -294 172 -51 72 -106
191 -151 329 -22 69 -41 131 -41 137 0 21 44 30 145 30 73 1 106 -3 122 -14z
m7415 -276 c-9 -38 -38 -47 -35 -11 2 12 10 39 20 60 16 36 17 36 20 11 2 -15
0 -42 -5 -60z m203 -110 c11 -18 -5 -79 -20 -79 -11 0 -15 11 -15 38 0 48 18
69 35 41z m550 -192 c14 -21 14 -28 0 -59 -15 -38 -69 -313 -81 -415 -6 -62
-13 -74 -45 -86 -42 -14 -42 6 -6 159 20 82 41 188 47 235 14 111 36 189 55
189 8 0 21 -11 30 -23z m164 -42 c30 -39 41 -111 41 -268 0 -172 -7 -190 -73
-185 l-42 3 -8 110 c-10 138 -3 331 13 351 19 21 46 17 69 -11z m399 -208 c2
-10 -3 -17 -12 -17 -10 0 -16 9 -16 21 0 24 23 21 28 -4z m-5539 -241 c33 -17
86 -76 96 -105 6 -19 -73 -191 -115 -251 -10 -14 -44 -72 -75 -130 -107 -192
-237 -378 -298 -423 -30 -23 -171 -62 -268 -74 -34 -4 -37 -2 -48 28 -6 17
-11 51 -11 74 0 51 34 168 54 184 16 14 28 9 130 -53 82 -49 90 -45 26 12 -60
54 -62 73 -7 95 28 12 37 25 57 78 46 126 79 179 181 286 54 58 99 109 99 114
0 25 -44 -5 -128 -85 -63 -60 -116 -134 -166 -233 -20 -40 -42 -73 -49 -73
-34 0 -224 34 -234 43 -54 41 86 225 257 337 41 28 93 63 116 80 45 33 92 52
209 85 97 27 137 30 174 11z m5300 -52 c56 -6 62 -9 67 -33 4 -14 19 -47 35
-74 16 -26 29 -52 29 -57 0 -5 13 -25 30 -43 40 -46 70 -113 70 -160 0 -47
-10 -51 -150 -65 -137 -14 -138 -13 -120 100 25 164 -12 138 -44 -31 -22 -113
-20 -157 5 -192 14 -20 19 -38 15 -53 -8 -31 -79 -76 -191 -121 -180 -73 -286
-153 -507 -386 -151 -158 -195 -213 -271 -337 -29 -48 -54 -79 -59 -74 -12 12
-23 313 -14 385 7 57 10 62 121 185 89 98 134 159 204 276 49 83 101 176 114
206 14 30 40 78 58 107 19 28 46 72 62 96 28 46 64 65 160 82 28 6 41 14 47
31 12 30 43 31 63 2 l15 -23 26 24 26 25 16 -22 c20 -30 30 -28 48 10 19 38
19 38 3 38 -7 0 -31 16 -53 35 -32 29 -36 37 -24 45 8 5 24 10 35 10 11 0 27
5 35 10 18 11 63 12 149 4z m224 -74 c35 -11 76 -29 90 -40 14 -11 33 -23 44
-28 47 -19 112 -68 129 -96 17 -29 19 -84 27 -824 l9 -794 -26 -27 c-14 -15
-42 -65 -61 -111 -19 -47 -44 -93 -54 -104 -19 -18 -20 -18 -47 25 -45 72
-174 344 -174 368 0 6 -11 33 -24 59 -14 27 -29 76 -36 110 -6 33 -21 83 -33
109 -19 43 -22 69 -25 246 -4 213 1 243 44 272 36 23 110 38 189 39 59 1 78
-4 119 -27 38 -21 51 -25 58 -15 14 22 9 33 -33 73 -22 22 -45 50 -50 63 -5
12 -24 100 -43 195 -55 271 -81 343 -162 446 -68 87 -58 97 59 61z m-535 -8
c5 -17 -76 -68 -90 -54 -13 13 -3 29 36 53 33 20 47 20 54 1z m504 -429 c-2
-27 2 -50 12 -65 9 -12 16 -37 16 -55 0 -17 5 -55 11 -83 14 -67 1 -83 -94
-105 -40 -10 -97 -30 -127 -46 -30 -15 -80 -40 -110 -54 -70 -34 -247 -151
-258 -172 -14 -25 -32 -6 -32 34 0 20 5 77 11 125 11 82 14 91 44 113 17 14
70 42 116 64 109 50 194 125 204 178 14 81 62 114 155 110 l55 -2 -3 -42z
m-6054 -40 c-2 -10 -12 -18 -23 -18 -11 0 -21 8 -23 18 -3 13 3 17 23 17 20 0
26 -4 23 -17z m2860 -320 c2 -15 8 -19 23 -16 14 4 19 0 19 -14 0 -22 -18 -43
-37 -43 -7 0 -13 7 -13 15 0 14 -3 14 -28 1 -57 -29 -68 22 -15 64 31 24 47
22 51 -7z m-98 -7 c0 -18 -17 -29 -30 -21 -8 5 -7 11 1 21 15 18 29 18 29 0z
m2676 -20 c9 -22 -15 -225 -42 -363 -13 -67 -28 -163 -35 -213 -6 -50 -22
-143 -35 -208 -14 -64 -31 -148 -38 -187 -8 -38 -21 -88 -31 -110 -9 -22 -21
-69 -26 -105 -6 -41 -17 -72 -30 -86 -15 -16 -18 -29 -13 -48 4 -16 1 -35 -8
-49 -8 -12 -18 -45 -22 -74 -6 -51 -60 -181 -79 -195 -30 -20 -44 11 -65 147
-7 39 -37 140 -68 225 -31 85 -66 184 -79 220 -88 243 -70 410 60 580 65 85
363 388 429 437 63 47 74 50 82 29z m-2619 -87 c56 -27 126 -106 142 -160 7
-23 26 -131 42 -238 24 -162 31 -242 36 -458 7 -302 13 -279 -92 -338 -34 -19
-68 -41 -75 -50 -15 -19 -50 -20 -50 -2 0 8 18 30 41 50 36 33 39 39 28 59
-17 34 -50 58 -80 58 -43 0 -184 -44 -423 -134 -163 -60 -236 -93 -267 -118
-73 -59 -129 -80 -129 -48 0 4 26 50 58 101 70 112 236 406 304 539 27 52 55
102 63 110 31 34 76 166 46 134 -5 -5 -52 -88 -104 -184 -113 -209 -169 -310
-231 -410 -26 -41 -63 -103 -84 -137 -35 -60 -69 -106 -193 -266 -30 -40 -112
-131 -182 -203 -152 -158 -211 -195 -322 -202 -57 -3 -73 -1 -84 12 -11 13
-11 20 4 42 26 40 182 193 247 243 76 58 230 218 300 311 65 86 126 190 244
413 47 89 122 212 173 280 49 67 90 131 92 142 2 11 21 28 43 39 22 11 68 47
101 81 55 55 72 81 124 195 12 27 71 114 95 143 22 23 80 22 133 -4z m199 -20
c10 -17 -13 -36 -27 -22 -12 12 -4 33 11 33 5 0 12 -5 16 -11z m37 -56 c4 -3
2 -11 -3 -18 -5 -6 -13 -29 -18 -51 -9 -46 -42 -62 -42 -20 0 53 41 111 63 89z
m97 -28 c0 -16 -27 -32 -37 -21 -7 7 16 36 28 36 5 0 9 -7 9 -15z m2492 -35
c28 -58 39 -189 27 -319 -14 -155 -23 -171 -96 -171 -34 0 -43 4 -43 18 2 160
-11 364 -24 401 -9 24 -16 48 -16 53 0 12 101 59 120 56 8 -2 23 -19 32 -38z
m-2415 -11 c-7 -52 -28 -77 -46 -55 -10 12 -8 23 9 55 27 54 44 54 37 0z
m1477 5 c3 -9 6 -57 6 -107 0 -138 18 -305 50 -464 16 -79 27 -150 24 -158
-11 -27 -51 -17 -78 18 -28 37 -56 107 -56 142 0 12 -9 34 -20 48 -33 42 -59
144 -76 300 -18 170 -19 168 66 213 53 27 76 30 84 8z m-1406 -41 c4 -25 -19
-45 -38 -33 -11 7 -12 13 -2 35 14 30 35 29 40 -2z m-188 13 c0 -11 -19 -15
-25 -6 -3 5 1 10 9 10 9 0 16 -2 16 -4z m-4292 -70 c55 -63 81 -190 81 -391 0
-147 -14 -312 -28 -329 -8 -10 -8 -21 -1 -40 5 -15 10 -38 10 -50 0 -33 37
-76 65 -76 12 0 28 -7 35 -15 7 -8 25 -15 41 -15 35 0 89 -54 89 -90 0 -35
-260 -312 -327 -350 -26 -14 -65 -38 -87 -53 -21 -15 -54 -29 -75 -33 -37 -6
-106 -23 -221 -55 -36 -10 -84 -18 -108 -18 -24 -1 -66 -11 -94 -23 -49 -21
-51 -21 -64 -3 -8 10 -14 27 -14 37 0 28 68 191 102 245 17 26 33 66 35 88 7
65 12 73 29 51 13 -19 15 -19 51 12 86 73 107 86 166 107 72 25 67 -2 49 239
-15 202 -16 582 -1 624 7 20 45 60 106 111 105 89 106 89 161 27z m5688 -126
c17 -85 41 -192 53 -237 30 -115 28 -145 -10 -177 -33 -28 -71 -41 -93 -33
-43 17 -76 185 -76 389 0 126 2 143 23 179 17 31 27 39 47 37 23 -3 26 -10 56
-158z m-688 129 c73 -10 98 -10 113 -1 20 13 70 16 107 6 25 -7 29 -35 8 -53
-8 -7 -20 -35 -27 -64 -32 -135 -206 -513 -284 -615 -36 -48 -53 -62 -69 -60
-30 4 -33 50 -7 87 31 43 71 133 71 158 0 12 14 38 30 57 27 30 67 126 52 126
-3 0 -38 -27 -78 -60 -70 -58 -94 -71 -94 -50 0 12 47 68 129 152 68 70 79
109 13 45 -37 -36 -62 -47 -62 -27 0 5 16 40 35 77 38 76 55 131 36 119 -6 -4
-25 -34 -41 -66 -16 -32 -35 -62 -41 -65 -19 -12 -31 9 -20 37 24 63 39 128
31 133 -5 3 -17 -19 -26 -50 -10 -30 -23 -55 -30 -55 -31 0 -22 152 12 177 10
7 25 11 33 9 9 -3 58 -10 109 -17z m-491 -30 c-8 -58 -21 -68 -52 -39 -32 30
-32 46 3 64 46 26 55 21 49 -25z m78 31 c7 -12 -19 -75 -35 -85 -31 -19 -33
42 -2 78 17 19 28 22 37 7z m780 -20 c30 -34 17 -147 -29 -250 -21 -47 -51
-119 -66 -160 -64 -177 -161 -324 -345 -520 l-79 -85 31 -3 c18 -2 34 -10 38
-19 3 -9 17 -94 31 -187 27 -189 38 -231 60 -240 25 -10 35 3 20 27 -45 70
-101 417 -67 417 5 0 17 -24 26 -52 21 -64 74 -168 86 -168 15 0 10 27 -16 85
-29 66 -65 191 -65 227 0 14 9 33 21 44 21 19 21 19 43 -9 81 -106 118 -124
71 -34 -39 73 -29 87 31 42 57 -43 61 -24 9 39 -33 41 -46 86 -25 86 6 0 29
-13 51 -30 43 -31 59 -31 59 0 0 11 -11 22 -31 29 -42 14 -36 45 9 49 36 4 39
8 16 33 -21 23 -11 49 18 49 46 0 52 16 14 38 -20 12 -36 26 -36 31 0 20 45
41 87 41 30 0 46 5 56 20 18 25 58 40 112 40 51 0 75 -19 75 -61 0 -19 12 -42
35 -68 32 -35 35 -44 35 -97 0 -33 -18 -148 -40 -256 -39 -194 -67 -283 -143
-450 -80 -175 -312 -428 -393 -428 -51 0 -130 103 -179 234 -28 73 -54 254
-56 379 -2 114 -9 143 -35 139 -12 -2 -24 4 -27 13 -4 8 -15 15 -26 15 -14 0
-18 -5 -14 -20 3 -11 0 -20 -6 -20 -6 0 -11 8 -11 19 0 15 -11 19 -78 24 -47
4 -106 17 -148 32 -38 15 -79 29 -91 32 -28 6 -95 -32 -142 -81 -39 -40 -73
-46 -121 -21 -39 20 -53 47 -36 70 7 9 43 33 81 54 81 42 90 61 82 181 -5 89
11 129 94 231 28 35 57 78 64 94 18 43 29 115 17 115 -5 0 -12 -19 -16 -42
-10 -63 -110 -228 -138 -228 -23 0 -16 37 21 112 36 75 81 217 81 257 0 9 -14
24 -30 33 -30 17 -31 17 -40 -8 -16 -42 -12 -62 13 -66 15 -2 23 -11 25 -29 3
-29 -27 -117 -59 -168 -36 -60 -46 -30 -70 211 -12 120 -19 225 -15 233 4 12
14 14 41 9 25 -4 39 -2 50 10 25 24 41 20 91 -26 48 -45 74 -92 196 -368 37
-85 81 -173 97 -195 15 -22 33 -55 39 -73 7 -19 32 -63 57 -98 66 -92 75 -89
162 44 68 104 142 241 158 292 4 14 15 36 25 50 9 14 23 43 30 65 7 22 37 92
65 155 29 63 56 126 60 140 14 44 59 54 90 20z m1675 -12 c0 -16 -3 -19 -11
-11 -6 6 -8 16 -5 22 11 17 16 13 16 -11z m-2410 -7 c0 -22 -16 -36 -24 -22
-8 12 3 41 15 41 5 0 9 -9 9 -19z m163 -106 c-1 -66 -4 -138 -7 -160 -5 -35
-4 -38 8 -22 40 52 50 -27 12 -101 -23 -46 -52 -79 -60 -71 -3 2 -8 91 -12
196 -6 170 -5 198 11 238 12 33 22 45 34 43 14 -3 16 -19 14 -123z m728 54 c4
-35 9 -130 13 -211 l7 -148 -58 0 c-70 0 -129 15 -137 35 -5 15 69 235 98 290
9 17 23 47 31 68 21 55 39 42 46 -34z m-5278 48 c3 -7 3 -25 0 -40 -4 -22 -2
-26 10 -21 8 3 18 0 22 -6 10 -17 -1 -49 -35 -104 -23 -35 -34 -46 -42 -38 -8
8 -7 22 5 52 9 22 11 42 6 46 -5 3 -9 20 -9 39 0 60 29 109 43 72z m-63 -23
c0 -8 -7 -14 -15 -14 -15 0 -21 21 -9 33 10 9 24 -2 24 -19z m4510 -9 c0 -23
-6 -38 -16 -42 -25 -9 -34 10 -19 45 18 42 35 41 35 -3z m-125 -85 c8 -36 -2
-73 -18 -67 -7 2 -13 25 -15 50 -2 36 0 47 12 47 8 0 17 -13 21 -30z m2522
-66 c13 -38 22 -85 21 -104 -3 -32 -6 -36 -46 -44 -57 -12 -73 2 -49 43 12 20
17 51 17 98 0 109 22 112 57 7z m-2379 -15 c2 -55 0 -68 -18 -84 -29 -26 -49
-7 -32 30 7 14 12 41 12 60 0 89 34 84 38 -6z m-4538 46 c0 -8 -4 -15 -9 -15
-13 0 -22 16 -14 24 11 11 23 6 23 -9z m120 -43 c0 -26 -92 -142 -112 -142
-29 0 -21 22 33 93 51 66 79 84 79 49z m-10 -115 c0 -18 -48 -83 -94 -126 -27
-27 -39 -32 -48 -23 -8 8 -5 21 14 50 57 85 128 140 128 99z m4413 -82 c4 -22
10 -52 14 -67 4 -21 1 -28 -11 -28 -22 0 -46 52 -46 100 0 34 3 41 17 38 12
-2 21 -17 26 -43z m2407 12 c0 -7 -5 -18 -10 -23 -6 -6 -13 -34 -17 -62 -11
-98 -57 -96 -98 5 -25 64 -26 68 -9 80 24 18 134 18 134 0z m-6810 -30 c0 -12
-24 -54 -53 -92 -30 -39 -59 -80 -66 -93 -13 -25 -51 -30 -51 -7 0 31 53 121
98 168 51 52 72 59 72 24z m4650 10 c0 -19 -65 -87 -84 -87 -27 0 -18 26 24
64 42 38 60 45 60 23z m1912 -17 c-16 -136 -29 -157 -75 -127 -19 12 -28 29
-32 62 -4 24 -5 52 -1 60 7 20 44 35 81 32 26 -2 30 -6 27 -27z m-248 -76 c-1
-37 -8 -72 -13 -77 -17 -17 -61 9 -61 36 0 25 53 107 69 107 5 0 7 -30 5 -66z
m56 -10 c0 -16 -16 -19 -25 -4 -8 13 4 32 16 25 5 -4 9 -13 9 -21z m-6390 -50
c0 -22 -45 -95 -75 -124 -20 -19 -28 -21 -34 -12 -14 23 0 61 41 107 40 46 68
58 68 29z m4570 -9 c0 -8 -4 -15 -10 -15 -5 0 -10 7 -10 15 0 8 5 15 10 15 6
0 10 -7 10 -15z m1013 -39 c31 -33 64 -57 82 -61 17 -4 35 -8 41 -10 7 -2 20
-25 29 -52 49 -135 77 -210 85 -228 38 -85 50 -125 65 -215 15 -91 16 -121 5
-263 -7 -102 -9 -226 -4 -339 6 -164 5 -178 -11 -184 -10 -4 -106 0 -214 10
-262 22 -381 47 -397 84 -6 15 -17 359 -14 470 1 43 36 155 70 222 10 19 23
76 29 125 7 50 19 119 27 155 8 36 21 111 29 168 13 102 30 142 60 142 7 0 18
7 25 15 21 25 40 17 93 -39z m-5566 -60 c-8 -20 -36 -21 -43 -1 -4 8 0 22 7
31 11 13 14 13 27 0 8 -8 12 -22 9 -30z m4533 -1 c0 -8 -7 -15 -15 -15 -8 0
-15 7 -15 15 0 8 7 15 15 15 8 0 15 -7 15 -15z m-4605 -76 c0 -7 -8 -15 -17
-17 -18 -3 -25 18 -11 32 10 10 28 1 28 -15z m91 -83 c-8 -33 -36 -35 -36 -3
0 28 20 51 33 38 5 -5 7 -21 3 -35z m3672 -48 c4 -20 -29 -33 -39 -16 -9 15 9
40 25 35 6 -2 12 -11 14 -19z m-3630 -10 c16 -16 15 -53 -2 -67 -16 -13 -20
-9 -30 32 -10 42 7 60 32 35z m3582 -78 c0 -11 -7 -20 -15 -20 -15 0 -21 21
-8 33 12 13 23 7 23 -13z m-5836 -75 c12 -9 42 -15 79 -15 79 0 74 -24 -6 -28
-80 -4 -71 -19 11 -18 37 1 80 -3 97 -7 l29 -8 -19 21 c-20 22 -20 22 0 37 28
20 104 12 141 -16 43 -31 101 -151 119 -246 10 -51 17 -148 18 -270 2 -199 -3
-227 -42 -240 -10 -3 -111 -6 -224 -8 -158 -1 -209 1 -219 11 -9 9 -13 50 -13
145 l0 132 34 3 33 3 -33 17 c-40 20 -45 51 -11 68 22 11 23 12 3 17 -33 8
-38 37 -11 57 l23 18 -21 11 c-26 14 -29 46 -4 61 12 8 13 13 5 16 -35 15 2
54 51 54 21 0 25 4 23 22 -2 18 6 24 38 34 l40 12 -65 1 c-88 2 -114 16 -118
65 -5 64 6 78 42 51z m5888 -6 c23 -12 67 -30 96 -40 75 -26 82 -34 82 -88 0
-71 -39 -139 -120 -211 -38 -34 -81 -81 -97 -105 -15 -24 -38 -50 -51 -57 -13
-7 -30 -24 -38 -39 -37 -73 -243 -197 -372 -224 -87 -19 -220 -19 -274 -1 -24
8 -65 20 -93 26 -44 10 -124 42 -250 100 -22 10 -54 24 -72 30 -17 7 -39 20
-49 31 -16 17 -16 20 -1 37 25 27 122 76 139 70 8 -4 18 -20 21 -37 8 -37 1
-36 185 -16 132 14 384 68 497 108 51 17 73 34 143 105 69 71 85 95 98 141 19
65 92 191 111 191 2 0 23 -10 45 -21z m516 -52 c3 -51 4 -52 33 -36 16 8 23 7
33 -6 10 -14 17 -15 34 -6 42 23 133 9 145 -23 3 -8 11 -139 18 -292 13 -303
13 -299 -45 -283 -17 4 -83 13 -146 19 -123 12 -218 31 -276 55 -20 8 -45 15
-55 15 -28 0 -219 101 -230 121 -20 38 26 95 101 127 54 23 124 98 170 180 35
62 77 112 95 112 6 0 17 -16 24 -35 7 -19 16 -35 21 -35 5 0 13 23 19 51 22
99 54 119 59 36z m-6394 -73 c25 -10 19 -34 -9 -34 -24 0 -34 18 -18 33 8 8 8
8 27 1z m9046 -29 c0 -8 -7 -15 -15 -15 -16 0 -20 12 -8 23 11 12 23 8 23 -8z
m-4455 -87 c-6 -15 -108 -82 -148 -97 -38 -15 -82 -14 -95 2 -12 14 7 69 30
83 11 8 79 16 190 22 18 1 26 -2 23 -10z m-2537 -113 c-6 -28 -4 -29 23 -15
37 20 21 -16 -27 -59 -37 -35 -48 -40 -60 -30 -13 10 -12 14 3 32 10 10 17 28
15 39 -4 20 23 58 41 58 5 0 7 -11 5 -25z m-196 -50 c-6 -71 -41 -70 -42 1 0
35 8 46 30 41 11 -2 14 -13 12 -42z m288 4 c0 -19 -103 -119 -121 -119 -42 0
-16 45 61 104 42 33 60 37 60 15z m2198 12 c8 -4 12 -19 10 -32 -2 -20 -9 -24
-37 -24 -37 0 -58 22 -48 49 7 17 52 22 75 7z m-2174 -39 c2 -4 1 -14 -4 -22
-7 -11 -12 -12 -21 -3 -6 6 -8 16 -5 22 8 13 23 14 30 3z m106 -31 c0 -19
-114 -151 -131 -151 -15 0 -10 26 11 53 11 14 20 39 20 56 0 28 3 31 23 26 16
-4 29 0 41 14 24 26 36 27 36 2z m2004 -11 c58 -22 15 -78 -50 -66 -43 9 -50
21 -30 51 18 27 39 31 80 15z m-2174 -44 c0 -20 -27 -39 -46 -32 -15 6 -15 8
1 26 21 23 45 26 45 6z m280 -9 c0 -14 -28 -58 -44 -69 -5 -4 -14 -4 -18 -2
-14 9 -9 30 13 58 22 27 49 35 49 13z m1283 -3 c3 -4 2 -15 -3 -25 -13 -23
-66 -35 -86 -18 -14 12 -14 15 6 31 22 18 70 24 83 12z m77 -3 c0 -12 -20 -25
-27 -18 -7 7 6 27 18 27 5 0 9 -4 9 -9z m460 -17 c50 -20 51 -47 3 -52 -40 -4
-73 13 -73 37 0 35 13 38 70 15z m-1700 -8 c0 -15 -20 -36 -34 -36 -6 0 -17 4
-25 9 -12 8 -12 13 -3 24 15 17 62 19 62 3z m-1445 -86 c29 -42 28 -70 -4 -70
-15 0 -23 11 -32 39 -10 34 -8 71 4 71 3 0 17 -18 32 -40z m4909 34 c24 -9 19
-40 -10 -63 -31 -24 -130 -57 -215 -70 -44 -8 -70 -18 -95 -41 -34 -30 -79
-39 -118 -24 -28 11 -18 22 52 60 37 20 84 48 105 61 49 31 104 51 187 68 82
17 76 16 94 9z m1320 -36 c10 -41 7 -78 -8 -78 -17 0 -26 21 -26 59 0 44 23
57 34 19z m-4289 -18 c0 -7 -6 -15 -12 -17 -8 -3 -13 4 -13 17 0 13 5 20 13
18 6 -3 12 -11 12 -18z m1189 4 c10 -25 -6 -37 -83 -64 -91 -31 -108 -20 -60
39 30 39 35 41 85 41 39 0 53 -4 58 -16z m3184 -12 c2 -14 -2 -22 -12 -22 -19
0 -29 17 -22 36 8 22 30 12 34 -14z m-4704 2 c21 -8 20 -31 -1 -42 -20 -11
-63 2 -63 17 0 10 28 30 42 31 3 0 13 -3 22 -6z m136 -19 c0 -8 -7 -15 -15
-15 -8 0 -15 7 -15 15 0 8 7 15 15 15 8 0 15 -7 15 -15z m506 0 c3 -8 3 -19 0
-24 -10 -16 -36 -1 -36 20 0 22 28 26 36 4z m-1902 -36 c-3 -5 -10 -7 -15 -3
-5 3 -7 10 -3 15 3 5 10 7 15 3 5 -3 7 -10 3 -15z m1803 -6 c7 -19 -14 -33
-49 -33 -21 0 -28 5 -28 20 0 37 64 47 77 13z m-401 -4 c10 -17 -13 -36 -27
-22 -12 12 -4 33 11 33 5 0 12 -5 16 -11z m279 2 c7 -12 -12 -24 -25 -16 -11
7 -4 25 10 25 5 0 11 -4 15 -9z"/>
<path d="M5794 10148 c-30 -28 -52 -54 -49 -56 3 -3 19 10 35 30 16 19 43 41
60 48 16 7 30 16 30 21 0 20 -24 6 -76 -43z"/>
<path d="M5915 9843 c-51 -65 -108 -175 -103 -200 6 -30 28 -26 28 5 0 16 6
35 14 41 8 7 17 24 21 39 3 15 27 57 52 95 26 37 44 70 40 73 -3 3 -26 -21
-52 -53z"/>
<path d="M5880 9620 c0 -5 9 -10 20 -10 11 0 20 5 20 10 0 6 -9 10 -20 10 -11
0 -20 -4 -20 -10z"/>
<path d="M5565 8630 c41 -21 51 -20 42 5 -4 10 -19 15 -44 15 l-37 0 39 -20z"/>
<path d="M5665 8625 c-26 -12 -27 -14 -12 -21 21 -8 67 10 67 26 0 13 -18 12
-55 -5z"/>
<path d="M9263 9023 c-4 -9 0 -113 9 -230 12 -175 18 -216 32 -232 17 -18 17
-22 2 -43 -20 -28 -20 -52 -2 -67 11 -9 15 3 25 65 10 59 19 83 42 109 24 27
31 46 36 99 5 55 3 66 -9 66 -9 0 -21 7 -28 15 -7 8 -21 15 -31 15 -32 0 -49
28 -49 84 0 28 5 57 11 63 6 6 9 23 5 36 -7 31 -34 43 -43 20z m80 -335 c5
-16 -10 -48 -23 -48 -11 0 -14 43 -3 53 10 11 21 8 26 -5z"/>
<path d="M7347 8264 c-4 -4 -7 -14 -7 -23 0 -11 3 -12 11 -4 6 6 10 16 7 23
-2 6 -7 8 -11 4z"/>
<path d="M7382 8139 c-53 -38 -50 -50 3 -14 21 14 42 25 46 25 5 0 9 5 9 10 0
16 -12 11 -58 -21z"/>
<path d="M7540 8010 c-30 -22 -82 -59 -117 -81 -35 -23 -61 -44 -58 -47 4 -5
18 3 136 81 50 33 110 87 98 87 -3 0 -30 -18 -59 -40z"/>
<path d="M7440 8020 c-9 -6 -10 -10 -3 -10 6 0 15 5 18 10 8 12 4 12 -15 0z"/>
<path d="M7447 7856 c-106 -64 -117 -74 -54 -47 50 21 131 74 142 91 9 15 8
14 -88 -44z"/>
<path d="M7284 7754 c-18 -14 -18 -15 4 -4 12 6 22 13 22 15 0 8 -5 6 -26 -11z"/>
<path d="M6135 8135 c-44 -25 -87 -53 -95 -62 -14 -14 -12 -15 15 -9 30 7 63
28 139 86 56 43 33 37 -59 -15z"/>
<path d="M7623 7515 c4 -119 10 -161 26 -205 12 -30 21 -78 21 -105 0 -28 9
-85 19 -126 11 -41 29 -135 41 -210 11 -75 34 -181 50 -237 39 -137 56 -282
40 -358 -18 -86 -32 -116 -94 -188 -63 -74 -90 -121 -82 -142 11 -28 169 148
244 270 9 15 39 56 66 90 26 33 58 79 71 101 12 22 51 92 87 155 103 182 186
406 159 433 -8 8 -11 4 -11 -14 0 -59 -30 -128 -70 -160 -22 -18 -42 -44 -45
-60 -4 -16 -11 -31 -16 -34 -5 -4 -9 -17 -9 -29 0 -13 -7 -29 -15 -36 -21 -17
-45 -69 -45 -96 0 -13 -9 -28 -20 -34 -17 -9 -18 -14 -8 -30 11 -17 6 -26 -43
-72 -42 -41 -55 -60 -55 -82 1 -32 -27 -57 -44 -40 -6 6 -15 44 -20 85 -5 41
-14 99 -20 129 -42 217 -85 430 -105 515 -29 121 -57 279 -85 470 -29 195 -44
200 -37 10z"/>
<path d="M6388 7113 c-29 -31 -62 -92 -55 -100 3 -3 13 8 23 24 10 15 31 45
47 66 33 43 23 50 -15 10z"/>
<path d="M5835 7040 c-26 -52 -63 -119 -82 -149 -19 -29 -32 -55 -30 -57 4 -5
121 184 151 244 10 18 15 39 13 45 -2 7 -25 -31 -52 -83z"/>
<path d="M7987 7090 c-9 -13 -14 -26 -12 -29 9 -8 38 26 33 40 -3 8 -10 5 -21
-11z"/>
<path d="M6413 7028 c-58 -62 -65 -94 -8 -38 48 46 72 80 57 80 -4 0 -26 -19
-49 -42z"/>
<path d="M7986 6990 c-37 -39 -46 -56 -46 -85 0 -19 3 -35 7 -35 9 0 93 50 93
56 0 2 -14 -3 -31 -11 -32 -17 -59 -14 -59 6 0 6 21 35 46 65 58 68 52 70 -10
4z"/>
<path d="M6444 6928 c-32 -38 -66 -89 -61 -94 6 -6 97 93 97 106 0 17 -15 12
-36 -12z"/>
<path d="M6517 6907 c-33 -25 -127 -152 -127 -172 1 -16 12 -8 51 35 75 81
127 175 76 137z"/>
<path d="M7998 6811 c-55 -35 -64 -54 -33 -71 33 -17 59 -6 51 22 -3 15 2 30
16 45 32 34 17 36 -34 4z"/>
<path d="M5679 6783 c-14 -16 -47 -62 -72 -103 -26 -41 -55 -86 -65 -100 -16
-23 -16 -24 0 -12 14 11 133 180 162 230 12 20 1 14 -25 -15z"/>
<path d="M8500 6708 c0 -11 52 -93 87 -137 2 -2 6 -2 9 1 3 3 -6 28 -19 55
-28 54 -77 106 -77 81z"/>
<path d="M8410 6593 c0 -27 52 -226 62 -237 18 -21 6 62 -22 155 -30 97 -40
117 -40 82z"/>
<path d="M8310 6526 c0 -13 9 -34 20 -47 l19 -24 1 22 c0 30 -17 73 -30 73 -5
0 -10 -11 -10 -24z"/>
<path d="M6877 6423 c4 -21 12 -58 19 -83 13 -44 13 -44 8 30 -7 79 -10 90
-24 90 -5 0 -6 -17 -3 -37z"/>
<path d="M8251 6385 c0 -5 6 -19 14 -29 8 -11 15 -15 15 -10 0 6 -7 19 -15 30
-8 10 -14 15 -14 9z"/>
<path d="M8378 6350 c-4 -14 -8 -41 -8 -60 1 -29 2 -32 11 -17 6 9 9 36 7 60
-3 36 -4 38 -10 17z"/>
<path d="M6911 6274 c0 -11 3 -14 6 -6 3 7 2 16 -1 19 -3 4 -6 -2 -5 -13z"/>
<path d="M8145 6089 c-68 -11 -124 -32 -176 -64 l-43 -28 28 -14 c27 -14 32
-13 108 26 97 50 152 54 252 16 76 -29 108 -31 126 -10 10 12 8 21 -14 50
l-27 35 -102 -1 c-56 -1 -124 -5 -152 -10z m243 -33 c3 -12 -1 -17 -10 -14 -7
3 -15 13 -16 22 -3 12 1 17 10 14 7 -3 15 -13 16 -22z"/>
<path d="M5136 5663 c-6 -14 -5 -15 5 -6 7 7 10 15 7 18 -3 3 -9 -2 -12 -12z"/>
<path d="M5958 5363 c7 -3 16 -2 19 1 4 3 -2 6 -13 5 -11 0 -14 -3 -6 -6z"/>
<path d="M8175 4420 c-10 -39 -15 -73 -12 -76 2 -3 12 27 21 67 9 40 14 74 12
76 -2 2 -11 -28 -21 -67z"/>
<path d="M8151 4314 c0 -11 3 -14 6 -6 3 7 2 16 -1 19 -3 4 -6 -2 -5 -13z"/>
<path d="M4637 4573 c-11 -10 -8 -43 3 -43 12 0 31 35 23 44 -8 8 -18 8 -26
-1z"/>
<path d="M4713 4518 c-23 -30 -24 -41 -2 -21 12 12 20 25 17 28 -3 3 -10 0
-15 -7z"/>
<path d="M4766 4457 c-30 -39 -36 -68 -11 -47 23 19 40 -1 25 -30 -14 -26 -8
-37 9 -16 21 25 60 109 55 118 -13 20 -54 7 -78 -25z"/>
<path d="M5680 4265 c0 -7 78 -45 92 -45 24 1 -43 50 -68 50 -13 0 -24 -2 -24
-5z"/>
<path d="M6670 3757 c25 -13 59 -27 75 -30 21 -4 15 1 -20 17 -70 32 -109 42
-55 13z"/>
<path d="M8553 3748 c-18 -24 -24 -38 -16 -38 10 0 36 40 30 46 -2 3 -9 -1
-14 -8z"/>
<path d="M6879 3669 c43 -26 141 -63 148 -55 3 3 -5 10 -18 15 -13 5 -53 20
-88 35 -78 31 -87 33 -42 5z"/>
<path d="M8268 3638 c-38 -50 -45 -66 -22 -46 19 17 59 78 51 78 -3 0 -16 -15
-29 -32z"/>
<path d="M8329 3613 c-18 -26 -57 -76 -87 -111 -30 -35 -52 -66 -49 -68 7 -7
106 104 145 164 19 29 33 55 29 58 -3 3 -20 -16 -38 -43z"/>
<path d="M6145 3624 c-9 -14 -14 -28 -12 -31 7 -6 47 34 47 47 0 18 -17 10
-35 -16z"/>
<path d="M6256 3615 c-15 -20 -45 -47 -67 -61 -41 -26 -54 -56 -20 -47 25 6
88 69 108 106 21 42 10 43 -21 2z"/>
<path d="M8329 3499 c-34 -45 -91 -113 -127 -150 -35 -38 -58 -69 -50 -69 26
0 98 71 175 174 42 55 80 107 86 114 7 8 5 12 -6 12 -9 0 -44 -37 -78 -81z"/>
<path d="M6456 3542 c-8 -16 -33 -45 -55 -65 -27 -24 -35 -37 -25 -37 24 0
104 84 104 109 0 28 -7 27 -24 -7z"/>
<path d="M6299 3523 l-24 -28 28 24 c25 23 32 31 24 31 -2 0 -14 -12 -28 -27z"/>
<path d="M6486 3424 c-24 -30 -25 -34 -7 -25 20 11 46 49 39 56 -2 2 -17 -12
-32 -31z"/>
<path d="M6585 3409 c-28 -28 -63 -57 -80 -64 -16 -7 -23 -14 -15 -14 27 -2
120 72 141 112 15 27 7 21 -46 -34z"/>
<path d="M8365 3398 c-33 -35 -76 -81 -95 -102 l-35 -39 32 21 c42 30 177 182
161 182 -2 0 -31 -28 -63 -62z"/>
<path d="M5635 3430 c-3 -5 -1 -10 4 -10 6 0 11 5 11 10 0 6 -2 10 -4 10 -3 0
-8 -4 -11 -10z"/>
<path d="M7460 3418 c50 -30 141 -69 153 -65 9 3 -165 87 -181 87 -4 0 9 -10
28 -22z"/>
<path d="M5735 3401 c-34 -15 -90 -62 -60 -50 45 18 114 55 115 62 0 11 -11 8
-55 -12z"/>
<path d="M5868 3364 c-38 -20 -36 -28 2 -9 17 9 30 18 30 20 0 7 -1 6 -32 -11z"/>
<path d="M6636 3335 c-22 -19 -36 -35 -31 -35 17 0 75 43 75 56 0 18 1 19 -44
-21z"/>
<path d="M5965 3307 c-33 -17 -62 -33 -64 -34 -2 -2 -1 -6 2 -9 8 -8 125 42
147 62 27 26 -21 15 -85 -19z"/>
<path d="M6730 3300 c0 -5 7 -10 15 -10 8 0 15 5 15 10 0 6 -7 10 -15 10 -8 0
-15 -4 -15 -10z"/>
<path d="M7735 3291 c42 -42 414 -140 391 -102 -3 5 -18 11 -33 14 -123 24
-217 48 -259 65 -61 25 -113 37 -99 23z"/>
<path d="M6088 3230 c-36 -19 -57 -40 -41 -40 4 0 28 14 53 30 51 34 44 39
-12 10z"/>
<path d="M6199 3190 l-24 -20 33 11 c17 6 32 15 32 20 0 15 -16 10 -41 -11z"/>
<path d="M6333 3079 c-18 -12 -33 -23 -33 -25 0 -5 44 18 70 35 29 20 -5 10
-37 -10z"/>
<path d="M6470 3050 c-9 -6 -10 -10 -3 -10 6 0 15 5 18 10 8 12 4 12 -15 0z"/>
<path d="M6415 3025 c-25 -11 -27 -14 -9 -14 12 -1 27 6 34 14 15 18 14 18
-25 0z"/>
<path d="M6537 2983 c-32 -21 -53 -39 -48 -41 10 -3 141 66 141 74 0 14 -43
-1 -93 -33z"/>
<path d="M6678 2971 c-65 -41 -70 -57 -6 -19 29 18 55 34 57 35 2 2 2 5 -1 8
-2 3 -25 -8 -50 -24z"/>
<path d="M6762 2923 c-23 -15 -40 -29 -37 -31 6 -6 73 28 86 44 18 22 -3 16
-49 -13z"/>
<path d="M6907 2894 c-21 -14 -36 -28 -33 -31 5 -6 96 44 96 52 0 12 -29 3
-63 -21z"/>
<path d="M7006 2869 c-27 -16 -46 -33 -42 -36 6 -6 82 43 92 59 8 13 1 10 -50
-23z"/>
<path d="M7246 2818 c-78 -55 -163 -134 -153 -144 4 -4 22 6 40 23 45 42 92
73 111 73 23 0 20 -9 -19 -64 -43 -61 -46 -84 -4 -33 17 20 57 57 89 82 l58
45 -30 30 c-16 16 -30 30 -31 29 -1 0 -28 -19 -61 -41z"/>
<path d="M5150 2835 c0 -8 2 -15 4 -15 2 0 6 7 10 15 3 8 1 15 -4 15 -6 0 -10
-7 -10 -15z"/>
<path d="M7059 2800 l-54 -51 51 36 c54 37 83 65 67 65 -5 0 -34 -23 -64 -50z"/>
<path d="M8263 2768 c-44 -59 -113 -171 -162 -265 -18 -34 -64 -95 -102 -136
-38 -41 -69 -78 -69 -82 0 -16 68 36 119 92 37 40 78 102 116 175 32 62 77
138 100 168 43 57 64 100 47 100 -5 0 -27 -24 -49 -52z"/>
<path d="M5277 2752 c-26 -28 -22 -52 4 -25 12 11 20 26 17 33 -2 7 -9 5 -21
-8z"/>
<path d="M7417 2721 c-61 -48 -124 -131 -101 -131 8 0 158 140 162 152 8 18
-28 6 -61 -21z"/>
<path d="M7587 2719 c-51 -34 -140 -126 -187 -194 -47 -68 -21 -54 44 24 58
70 127 137 181 178 45 33 15 27 -38 -8z"/>
<path d="M7683 2668 c-66 -68 -141 -170 -111 -152 52 30 193 178 206 215 11
28 -32 0 -95 -63z"/>
<path d="M7862 2708 c-11 -18 -52 -69 -91 -112 -39 -44 -68 -82 -65 -85 12
-12 194 196 194 221 0 18 -19 6 -38 -24z"/>
<path d="M8093 2698 c-23 -24 -67 -86 -98 -138 -32 -52 -71 -114 -87 -137 -17
-23 -28 -47 -26 -54 5 -15 91 99 125 165 34 67 104 176 114 176 4 0 9 7 13 15
8 22 4 19 -41 -27z"/>
<path d="M5351 2679 c-13 -17 -21 -33 -18 -35 3 -3 15 9 27 26 29 41 20 49 -9
9z"/>
<path d="M7941 2662 c-59 -62 -106 -123 -140 -185 -46 -82 -32 -82 22 0 24 37
72 100 106 138 33 39 61 73 61 78 0 15 -14 6 -49 -31z"/>
<path d="M5413 2657 c-35 -39 -37 -53 -2 -20 18 18 31 35 28 38 -3 3 -15 -5
-26 -18z"/>
<path d="M5450 2595 c-29 -30 -51 -57 -48 -60 7 -7 118 93 118 106 0 19 -17 7
-70 -46z"/>
<path d="M4894 2626 c-9 -23 4 -167 23 -246 20 -86 60 -167 97 -193 17 -11 51
-38 76 -58 56 -47 162 -104 218 -119 56 -15 154 11 177 46 9 14 25 24 38 24
30 0 57 29 96 105 18 33 41 70 53 82 11 12 18 27 16 33 -3 11 -72 -41 -207
-156 -42 -36 -59 -45 -85 -42 -27 3 -31 7 -34 36 -3 29 3 40 44 77 26 24 96
72 156 107 60 35 150 87 201 117 122 71 128 76 92 93 -26 12 -29 10 -64 -30
-20 -23 -42 -42 -48 -42 -17 0 -16 30 2 53 10 15 11 25 3 43 -16 35 -41 29
-75 -18 -48 -69 -49 -75 -9 -44 20 15 40 26 43 23 3 -3 -8 -30 -24 -59 -26
-50 -36 -57 -153 -123 -221 -124 -202 -107 -198 -168 l3 -52 -38 2 c-50 3
-198 80 -263 137 -67 59 -91 116 -110 263 -8 65 -17 120 -19 122 -3 2 -7 -4
-11 -13z"/>
<path d="M5528 2591 c-36 -32 -75 -91 -59 -91 5 0 27 21 48 48 65 78 69 94 11
43z"/>
<path d="M4063 2289 c-16 -16 -17 -49 -3 -49 13 0 23 24 18 45 -2 13 -5 14
-15 4z"/>
<path d="M4152 2287 c-7 -9 -12 -28 -10 -44 l3 -28 13 23 c7 13 12 33 10 44
-3 19 -4 20 -16 5z"/>
<path d="M4237 2293 c-10 -19 -17 -82 -9 -87 12 -7 32 38 32 69 0 24 -14 34
-23 18z"/>
<path d="M4495 1910 c-3 -6 1 -7 9 -4 18 7 21 14 7 14 -6 0 -13 -4 -16 -10z"/>
<path d="M4920 986 c0 -8 5 -18 10 -21 6 -3 10 1 10 9 0 8 -4 18 -10 21 -5 3
-10 -1 -10 -9z"/>
<path d="M4315 920 c-3 -5 1 -10 9 -10 9 0 16 5 16 10 0 6 -4 10 -9 10 -6 0
-13 -4 -16 -10z"/>
<path d="M4850 916 c0 -2 7 -6 15 -10 8 -3 15 -1 15 4 0 6 -7 10 -15 10 -8 0
-15 -2 -15 -4z"/>
<path d="M3935 868 c-22 -12 -76 -35 -120 -53 -94 -37 -277 -135 -253 -135 17
0 418 196 418 205 0 7 0 7 -45 -17z"/>
<path d="M2468 4554 c-13 -13 -99 -29 -236 -44 -2 0 0 -5 3 -10 4 -7 51 -10
127 -8 l121 3 8 -28 c4 -15 9 -254 10 -532 3 -433 1 -507 -11 -519 -17 -17
-215 -41 -266 -33 -30 5 -44 -5 -44 -30 0 -10 169 7 260 25 l85 17 8 70 c4 39
6 293 5 565 l-3 495 -22 23 c-27 26 -25 26 -45 6z"/>
<path d="M2856 3368 c-5 -34 -40 -676 -39 -716 1 -26 10 -39 19 -29 13 12 23
184 30 480 7 270 3 352 -10 265z"/>
<path d="M2470 3079 c-30 -5 -98 -13 -150 -19 -52 -6 -98 -14 -104 -20 -5 -5
-2 -47 8 -107 9 -55 16 -147 16 -206 0 -91 3 -109 17 -114 15 -6 76 2 212 26
93 17 94 21 99 234 4 162 2 185 -13 200 -9 9 -19 16 -23 16 -4 -1 -32 -5 -62
-10z m38 -71 c18 -18 17 -272 -2 -290 -16 -16 -199 -53 -221 -44 -19 7 -20 88
-1 214 17 113 26 126 81 118 23 -4 52 -2 66 3 34 14 63 13 77 -1z"/>
<path d="M1745 2973 c-147 -17 -191 -28 -199 -50 -13 -33 -19 -200 -11 -326
l7 -127 33 0 c18 0 73 12 121 26 49 15 108 31 130 37 l42 10 6 156 c4 86 9
186 12 224 5 53 3 67 -7 66 -8 -1 -68 -8 -134 -16z m104 -135 c-1 -124 -12
-205 -30 -223 -20 -20 -175 -58 -205 -51 -40 10 -56 48 -61 144 -6 102 8 166
40 183 23 13 160 36 220 38 l37 1 -1 -92z"/>
<path d="M9027 3152 c-36 -39 -20 -50 46 -31 27 7 37 15 35 27 -5 25 -60 28
-81 4z"/>
<path d="M6520 1545 c-5 -14 -17 -39 -25 -55 -9 -17 -13 -30 -10 -30 7 0 65
91 65 102 0 18 -21 6 -30 -17z"/>
<path d="M6540 1418 l-33 -43 38 37 c22 21 36 40 33 43 -3 3 -20 -13 -38 -37z"/>
<path d="M6580 1318 c-11 -18 -20 -37 -20 -43 1 -13 60 52 60 65 0 21 -21 9
-40 -22z"/>
<path d="M6633 1254 c-7 -20 9 -76 25 -82 6 -2 17 7 23 21 9 20 8 30 -6 51
-20 30 -33 33 -42 10z"/>
<path d="M6711 1124 c0 -11 3 -14 6 -6 3 7 2 16 -1 19 -3 4 -6 -2 -5 -13z"/>
<path d="M5880 651 c0 -17 92 -72 114 -69 33 5 21 22 -21 31 -20 4 -47 16 -58
27 -23 22 -35 25 -35 11z"/>
<path d="M9397 10726 l-16 -35 27 -3 c20 -2 28 -9 30 -27 2 -13 8 -29 13 -35
5 -6 15 -19 22 -29 18 -25 44 -12 57 29 12 36 5 94 -12 94 -5 0 -21 9 -35 20
-39 30 -67 26 -86 -14z"/>
<path d="M8915 10680 c-4 -6 6 -10 24 -10 16 0 33 5 36 10 4 6 -6 10 -24 10
-16 0 -33 -4 -36 -10z"/>
<path d="M8740 10651 c-5 -11 -6 -29 -2 -41 7 -20 10 -18 24 19 14 34 14 41 3
41 -8 0 -19 -9 -25 -19z"/>
<path d="M8533 10564 c-9 -16 -9 -24 -1 -32 17 -17 44 -16 30 1 -5 6 -12 21
-14 32 -4 20 -4 20 -15 -1z"/>
<path d="M8900 10570 c0 -5 12 -10 28 -9 24 0 25 1 7 9 -27 12 -35 12 -35 0z"/>
<path d="M9220 10341 c0 -11 5 -23 10 -26 6 -3 10 3 10 14 0 11 -4 23 -10 26
-5 3 -10 -3 -10 -14z"/>
<path d="M5111 10084 c0 -11 3 -14 6 -6 3 7 2 16 -1 19 -3 4 -6 -2 -5 -13z"/>
<path d="M8568 8939 c-2 -24 -1 -100 2 -169 3 -69 2 -129 -2 -134 -10 -12 -9
-542 1 -576 11 -34 22 153 19 300 -1 63 1 221 6 350 7 200 6 238 -6 254 -14
18 -15 16 -20 -25z"/>
<path d="M5113 8218 c-15 -20 -25 -38 -20 -38 3 0 12 11 21 25 17 26 16 35 -1
13z"/>
<path d="M5078 7362 c-95 -100 -181 -233 -202 -312 -4 -14 12 10 34 53 41 78
52 89 68 62 7 -13 16 -6 51 35 28 34 37 50 27 50 -28 0 -17 36 25 89 49 62 47
76 -3 23z"/>
<path d="M4845 6968 c-20 -68 -40 -210 -32 -232 10 -26 22 -19 67 40 31 41 39
59 31 67 -6 6 -11 29 -12 52 l-1 40 -11 -49 c-17 -70 -37 -72 -37 -4 0 29 5
71 10 93 13 59 4 55 -15 -7z"/>
<path d="M1748 6265 c-28 -19 -50 -25 -88 -25 -56 0 -90 -13 -90 -34 0 -22 80
-135 112 -159 17 -12 34 -32 39 -44 12 -31 24 -29 56 12 23 28 35 35 64 35 72
0 76 36 15 129 -24 37 -45 75 -47 86 -6 28 -20 28 -61 0z m46 -77 c31 -44 10
-118 -33 -118 -68 0 -82 104 -18 130 32 13 34 12 51 -12z"/>
<path d="M43 5905 c4 -43 8 -227 9 -409 l2 -331 6 295 c3 162 9 301 13 308 12
18 37 -4 37 -32 0 -13 11 -32 25 -44 15 -13 22 -28 19 -37 -4 -8 -1 -15 5 -15
18 0 13 16 -40 122 -35 69 -53 118 -56 155 -9 88 -27 78 -20 -12z"/>
<path d="M1797 5884 c-14 -14 -6 -42 28 -99 19 -32 48 -91 65 -132 17 -41 50
-103 73 -138 23 -34 47 -71 54 -81 11 -18 12 -17 12 6 1 14 -14 44 -33 68 -19
23 -43 64 -53 89 -36 94 -138 294 -146 287z"/>
<path d="M309 5772 c6 -12 16 -24 22 -28 8 -4 8 -1 0 14 -6 12 -16 24 -22 28
-8 4 -8 1 0 -14z"/>
<path d="M9600 5734 c0 -9 -11 -37 -24 -63 -13 -25 -27 -54 -30 -63 -3 -9 -23
-26 -44 -37 -22 -11 -49 -36 -60 -56 -12 -19 -33 -40 -47 -47 -14 -6 -28 -23
-32 -37 -3 -14 -15 -32 -25 -39 -22 -16 -58 -84 -58 -109 1 -13 8 -9 28 17 15
19 66 80 114 136 135 157 178 161 178 17 l0 -74 -47 -45 c-46 -43 -47 -44 -19
-38 25 6 33 2 53 -22 l23 -29 0 253 c0 138 -2 252 -5 252 -3 0 -5 -7 -5 -16z"/>
<path d="M390 5651 c0 -5 7 -14 16 -22 8 -7 24 -30 35 -51 25 -50 131 -199
155 -219 36 -29 -42 94 -145 230 -54 71 -61 78 -61 62z"/>
<path d="M4233 5583 c9 -2 23 -2 30 0 6 3 -1 5 -18 5 -16 0 -22 -2 -12 -5z"/>
<path d="M260 5491 c0 -11 -9 -26 -21 -35 -20 -14 -19 -15 27 -28 35 -10 53
-21 64 -41 14 -26 14 -29 -4 -43 -18 -13 -17 -14 22 -14 23 0 42 4 42 9 0 11
-117 171 -125 171 -3 0 -5 -9 -5 -19z"/>
<path d="M3215 5430 c-7 -12 15 -12 70 -1 l40 9 -52 1 c-28 0 -55 -3 -58 -9z"/>
<path d="M3000 5399 c-100 -9 -213 -29 -206 -36 6 -7 303 27 336 37 22 8 21 8
-10 8 -19 0 -73 -4 -120 -9z"/>
<path d="M9578 5091 c-54 -63 -146 -224 -119 -207 5 4 31 36 57 71 50 68 66
77 83 48 8 -14 10 -5 11 39 0 63 -9 76 -32 49z"/>
<path d="M9382 4760 c-28 -48 -82 -198 -82 -228 0 -22 -24 -62 -37 -62 -7 0
-13 -4 -13 -10 0 -5 9 -6 22 -1 17 6 32 33 58 102 20 52 49 118 64 147 15 30
26 65 24 80 -3 25 -6 23 -36 -28z"/>
<path d="M67 4604 c-4 -4 -7 -47 -7 -96 0 -80 2 -89 18 -86 15 3 17 15 15 87
-1 78 -10 110 -26 95z"/>
<path d="M9241 4404 c0 -11 3 -14 6 -6 3 7 2 16 -1 19 -3 4 -6 -2 -5 -13z"/>
<path d="M9173 4229 c-15 -79 -17 -139 -3 -139 15 0 21 39 18 125 l-3 80 -12
-66z"/>
<path d="M420 3261 c-12 -8 -12 -30 5 -163 10 -85 15 -166 12 -180 -4 -15 -19
-40 -33 -57 -33 -40 -40 -87 -20 -135 9 -21 16 -49 16 -61 0 -24 23 -46 77
-76 21 -11 42 -42 72 -103 80 -160 202 -241 366 -241 94 0 125 18 125 70 0 41
-11 54 -97 108 -78 50 -106 88 -101 140 2 26 10 36 41 50 l37 19 0 109 c0 61
-4 119 -10 129 -5 10 -24 23 -41 29 l-32 11 6 140 c4 109 9 147 22 167 25 38
9 43 -140 43 -71 0 -166 3 -210 6 -46 3 -86 1 -95 -5z m390 -71 c7 -13 10 -84
8 -194 l-3 -174 -49 -7 c-59 -7 -200 2 -238 17 -31 11 -42 39 -58 138 -16 105
-13 194 8 212 28 25 40 26 184 27 127 1 138 0 148 -19z m-265 -401 c137 -1
256 -15 266 -30 5 -8 9 -31 9 -51 0 -31 4 -38 19 -38 27 0 34 -15 14 -31 -19
-16 -273 -20 -356 -6 -45 8 -50 11 -69 55 -27 64 -33 105 -18 133 l13 23 21
-27 c20 -25 27 -27 101 -28z m235 -219 c10 -5 23 -25 30 -44 11 -35 92 -116
151 -151 65 -39 34 -95 -53 -95 -21 0 -38 5 -38 10 0 6 -14 10 -31 10 -25 0
-33 6 -42 30 -11 29 -14 30 -54 24 -34 -5 -44 -3 -49 10 -3 9 -1 23 6 31 10
12 9 15 -8 15 -24 0 -37 15 -22 25 19 12 10 25 -12 20 -27 -6 -53 8 -44 24 4
6 21 15 39 20 31 9 31 9 5 10 -72 3 -78 34 -10 55 56 17 106 20 132 6z"/>
</g>
</svg>
